<svg width="27" height="27" viewBox="0 0 27 27" fill="none" xmlns="http://www.w3.org/2000/svg">
<path d="M13.4998 14.8499C14.3076 14.8498 15.0968 15.0912 15.7663 15.5432C16.4356 15.9952 16.9546 16.637 17.2565 17.3861C17.5584 18.1353 17.6293 18.9576 17.4602 19.7475C17.2913 20.5373 16.8899 21.2585 16.3078 21.8184L13.7293 24.2997H17.5498V26.9997H9.44988V24.6723L14.4353 19.8731C14.5962 19.7185 14.7163 19.5264 14.7847 19.314C14.8532 19.1017 14.8679 18.8756 14.8277 18.6562C14.7874 18.4367 14.6933 18.2307 14.5539 18.0564C14.4145 17.8822 14.2341 17.7453 14.0288 17.6578C13.8235 17.5704 13.5997 17.5352 13.3775 17.5554C13.1554 17.5757 12.9416 17.6506 12.7554 17.7737C12.5693 17.8967 12.4165 18.064 12.3108 18.2605C12.2052 18.457 12.1499 18.6767 12.1499 18.8998H9.44988C9.44988 17.8257 9.87657 16.7955 10.6361 16.036C11.3956 15.2765 12.4258 14.8499 13.4998 14.8499ZM21.5997 14.8499V20.2498H24.2997V14.8499H26.9997V26.9997H24.2997V22.9498H18.8998V14.8499H21.5997ZM2.69997 13.4998C2.6983 15.1193 3.06153 16.7183 3.76267 18.178C4.46382 19.6378 5.48484 20.9208 6.74992 21.9318V25.1934C4.69688 24.0088 2.99209 22.3044 1.80714 20.2516C0.622195 18.1989 -0.00109714 15.8701 1.44974e-06 13.4998H2.69997ZM13.4998 5.85954e-06C20.4995 5.85954e-06 26.2558 5.32839 26.9322 12.1499H24.216C23.953 10.0642 23.087 8.10059 21.7243 6.49985C20.3617 4.8991 18.5615 3.73078 16.5447 3.13816C14.5277 2.54554 12.3816 2.55435 10.3697 3.16354C8.35765 3.77272 6.56715 4.95578 5.21768 6.56767L8.0999 9.44989H1.44974e-06V1.34999L3.30341 4.65205C4.56954 3.19027 6.13552 2.01818 7.89493 1.21547C9.65435 0.412747 11.5659 -0.00179765 13.4998 5.85954e-06Z" fill="#1AADB6"/>
</svg>
