<svg width="26" height="24" viewBox="0 0 26 24" fill="none" xmlns="http://www.w3.org/2000/svg">
<path d="M7.24755 13.8016L11.0743 9.97481L2.70411 1.61813C2.05505 0.969073 0.932713 1.14487 0.52705 1.98323C-0.433022 3.99803 -0.0814465 6.47258 1.58177 8.14932L7.24755 13.8016ZM16.4156 11.354C18.4845 12.3141 21.3917 11.638 23.5417 9.48801C26.1244 6.90528 26.6247 3.20022 24.637 1.21247C22.6628 -0.76176 18.9577 -0.274962 16.3614 2.30776C14.2114 4.45778 13.5354 7.36504 14.4954 9.43393L2.24436 21.685C1.99153 21.9378 1.84948 22.2807 1.84948 22.6383C1.84948 22.9959 1.99153 23.3388 2.24436 23.5916C2.4972 23.8444 2.84011 23.9865 3.19767 23.9865C3.55523 23.9865 3.89815 23.8444 4.15098 23.5916L12.5212 15.2484L20.8779 23.6051C21.003 23.7303 21.1516 23.8296 21.3152 23.8974C21.4788 23.9651 21.6541 24 21.8312 24C22.0082 24 22.1835 23.9651 22.3471 23.8974C22.5107 23.8296 22.6593 23.7303 22.7845 23.6051C22.9097 23.4799 23.0089 23.3313 23.0767 23.1678C23.1444 23.0042 23.1793 22.8288 23.1793 22.6518C23.1793 22.4748 23.1444 22.2994 23.0767 22.1359C23.0089 21.9723 22.9097 21.8237 22.7845 21.6984L14.4278 13.3418L16.4156 11.354Z" fill="#1AADB6"/>
</svg>
