<svg width="27" height="27" viewBox="0 0 27 27" fill="none" xmlns="http://www.w3.org/2000/svg">
<path d="M25.0692 17.3608L26.9997 15.4303L25.0692 13.4998L20.2498 18.3192L8.68039 6.74992L13.4998 1.93048L11.5694 0L9.63888 1.93048L7.7084 0L4.81944 2.88896L2.88896 0.958489L0.958489 2.88896L2.88896 4.81944L0 7.7084L1.93048 9.63888L0 11.5694L1.93048 13.4998L6.74992 8.68039L18.3192 20.2498L13.4998 25.0692L15.4303 26.9997L17.3608 25.0692L19.2912 26.9997L22.1803 24.1107L24.1107 26.0412L26.0412 24.1107L24.1107 22.1803L26.9997 19.2912L25.0692 17.3608Z" fill="#1AADB6"/>
</svg>
