<svg width="20" height="20" viewBox="0 0 20 20" fill="none" xmlns="http://www.w3.org/2000/svg">
<path d="M15.6389 8.10172C15.8984 7.86874 15.8984 7.49098 15.6389 7.25799C15.3793 7.025 14.9585 7.025 14.699 7.25799L15.6389 8.10172ZM10.0002 12.3201L9.53033 12.742C9.65497 12.8539 9.82399 12.9167 10.0002 12.9167C10.1765 12.9167 10.3455 12.8539 10.4701 12.742L10.0002 12.3201ZM5.30145 7.25799C5.04192 7.025 4.62116 7.025 4.36163 7.25799C4.10211 7.49098 4.10211 7.86874 4.36163 8.10172L5.30145 7.25799ZM14.699 7.25799L9.53033 11.8983L10.4701 12.742L15.6389 8.10172L14.699 7.25799ZM10.4701 11.8983L5.30145 7.25799L4.36163 8.10172L9.53033 12.742L10.4701 11.8983Z" fill="#1AADB6"/>
</svg>
