<svg width="27" height="19" viewBox="0 0 27 19" fill="none" xmlns="http://www.w3.org/2000/svg">
<path d="M21.127 7.89639C21.938 8.71717 22.6171 9.65857 23.1402 10.6871C23.2893 11.0016 23.3102 11.3619 23.1982 11.6916C23.0861 12.0212 22.8501 12.2942 22.5401 12.4526C22.2302 12.6111 21.8707 12.6426 21.5378 12.5404C21.205 12.4382 20.9252 12.2103 20.7576 11.9051C20.3616 11.1261 19.8478 10.4129 19.2344 9.79034C18.3182 8.87375 17.1978 8.18733 15.965 7.78733C14.7323 7.38732 13.4223 7.28513 12.1424 7.48912C10.8626 7.69311 9.64928 8.19748 8.60197 8.9609C7.55466 9.72431 6.70317 10.7251 6.11727 11.881C5.95243 12.1897 5.67329 12.4215 5.33964 12.5268C5.00599 12.6322 4.64434 12.6027 4.33216 12.4447C4.01999 12.2867 3.7821 12.0127 3.66943 11.6815C3.55678 11.3502 3.5783 10.988 3.72941 10.6724C4.50628 9.13899 5.63545 7.81148 7.02438 6.79869C8.41332 5.7859 10.0225 5.11665 11.72 4.84579C13.4175 4.57493 15.155 4.71017 16.7902 5.24043C18.4253 5.7707 19.9115 6.68088 21.127 7.89639ZM18.3845 11.9011C19.0002 12.5169 19.5062 13.2718 19.8595 14.0749C20.002 14.4 20.0095 14.7684 19.8804 15.0992C19.7512 15.4299 19.496 15.6958 19.1709 15.8383C18.8456 15.9808 18.4772 15.9883 18.1465 15.8592C17.8158 15.73 17.5499 15.4749 17.4074 15.1496C17.1877 14.6455 16.8774 14.1859 16.4919 13.7938C15.6803 12.9823 14.5797 12.5264 13.4321 12.5264C12.2845 12.5264 11.1838 12.9823 10.3723 13.7938C9.99186 14.1801 9.68682 14.634 9.47285 15.1322C9.40377 15.2954 9.303 15.4431 9.17639 15.5669C9.04978 15.6908 8.89985 15.7883 8.73528 15.8538C8.57071 15.9193 8.39479 15.9515 8.2177 15.9485C8.0406 15.9455 7.86586 15.9073 7.70361 15.8363C7.54135 15.7653 7.39482 15.6628 7.27248 15.5347C7.15014 15.4066 7.05444 15.2555 6.99092 15.0902C6.92741 14.9248 6.89733 14.7486 6.90245 14.5715C6.90757 14.3944 6.94778 14.2201 7.02075 14.0588C7.36836 13.2549 7.86317 12.5232 8.47969 11.9011C9.79322 10.5878 11.5746 9.85001 13.4321 9.85001C15.2895 9.85001 17.071 10.5878 18.3845 11.9011ZM24.654 4.67198C25.3339 5.35192 25.9751 6.12691 26.5332 6.93536C26.7319 7.22758 26.807 7.58654 26.7421 7.93392C26.6772 8.28131 26.4775 8.58892 26.1867 8.78966C25.8959 8.9904 25.5374 9.06796 25.1895 9.00542C24.8417 8.94289 24.5327 8.74534 24.33 8.45587C23.8615 7.7786 23.3235 7.12675 22.7613 6.56459C17.5788 1.38199 9.17571 1.38199 3.99176 6.56459C3.45771 7.09865 2.92499 7.7505 2.43912 8.45185C2.23677 8.74366 1.9268 8.94312 1.57739 9.00638C1.22798 9.06964 0.867745 8.9915 0.575945 8.78915C0.284145 8.58681 0.0846762 8.27684 0.0214204 7.92743C-0.0418352 7.57801 0.0363035 7.21778 0.238646 6.92598C0.811518 6.0988 1.44462 5.3265 2.09914 4.67198C8.32711 -1.55733 18.426 -1.55733 24.654 4.67198ZM14.8067 15.5699C15.1835 15.9468 15.3952 16.4578 15.3952 16.9907C15.3952 17.5236 15.1835 18.0347 14.8067 18.4116C14.4299 18.7883 13.9188 19 13.3859 19C12.853 19 12.3419 18.7883 11.9651 18.4116C11.5883 18.0347 11.3766 17.5236 11.3766 16.9907C11.3766 16.4578 11.5883 15.9468 11.9651 15.5699C12.3419 15.1931 12.853 14.9814 13.3859 14.9814C13.9188 14.9814 14.4299 15.1931 14.8067 15.5699Z" fill="#1AADB6"/>
</svg>
