<svg width="20" height="20" viewBox="0 0 20 20" fill="none" xmlns="http://www.w3.org/2000/svg">
<path fill-rule="evenodd" clip-rule="evenodd" d="M14.6021 6.1633V7.44108C16.0374 7.8891 17.0832 9.18841 17.0832 10.7403V14.8544C17.0832 16.7756 15.4904 18.3333 13.5267 18.3333H6.47383C4.5093 18.3333 2.9165 16.7756 2.9165 14.8544V10.7403C2.9165 9.18841 3.96312 7.8891 5.39757 7.44108V6.1633C5.40604 3.67895 7.46372 1.66663 9.98713 1.66663C12.5444 1.66663 14.6021 3.67895 14.6021 6.1633ZM10.004 3.11583C11.723 3.11583 13.1202 4.48222 13.1202 6.1633V7.26138H6.87939V6.14674C6.88786 4.47394 8.28505 3.11583 10.004 3.11583ZM10.7411 13.7124C10.7411 14.1182 10.4108 14.4412 9.99593 14.4412C9.58947 14.4412 9.25923 14.1182 9.25923 13.7124V11.874C9.25923 11.4765 9.58947 11.1535 9.99593 11.1535C10.4108 11.1535 10.7411 11.4765 10.7411 11.874V13.7124Z" fill="#D9D9D9"/>
</svg>
