<svg width="28" height="28" viewBox="0 0 28 28" fill="none" xmlns="http://www.w3.org/2000/svg">
<path d="M16.7502 14.0609C16.7502 15.5524 15.5195 16.7621 14.0021 16.7621V18.1408C16.2941 18.1408 18.1527 16.3138 18.1527 14.0609H16.7502ZM14.0021 16.7621C12.4848 16.7621 11.2541 15.5524 11.2541 14.0609H9.85156C9.85156 16.3138 11.7102 18.1408 14.0021 18.1408V16.7621ZM11.2541 14.0609C11.2541 12.5685 12.4847 11.3597 14.0021 11.3597V9.98108C11.7103 9.98108 9.85156 11.8068 9.85156 14.0609H11.2541ZM14.0021 11.3597C15.5196 11.3597 16.7502 12.5685 16.7502 14.0609H18.1527C18.1527 11.8068 16.294 9.98108 14.0021 9.98108V11.3597Z" fill="white"/>
<path d="M3.20898 14.0608C3.20898 16.0918 4.49308 18.225 6.41346 19.8209C8.35218 21.4321 11.0323 22.5798 14.0029 22.5798V21.2012C11.3993 21.2012 9.03302 20.1926 7.31899 18.7682C5.58661 17.3284 4.61152 15.5468 4.61152 14.0608H3.20898ZM14.0029 22.5798C16.9729 22.5798 19.653 21.433 21.5919 19.8222C23.5125 18.2267 24.7969 16.0934 24.7969 14.0608H23.3943C23.3943 15.5484 22.4189 17.3301 20.6866 18.7693C18.9724 20.1933 16.6061 21.2012 14.0029 21.2012V22.5798ZM24.7969 14.0608C24.7969 12.0282 23.5125 9.89494 21.5919 8.29936C19.653 6.68858 16.9729 5.54175 14.0029 5.54175V6.92038C16.6061 6.92038 18.9724 7.92827 20.6866 9.3523C22.4189 10.7915 23.3943 12.5731 23.3943 14.0608H24.7969ZM14.0029 5.54175C11.0323 5.54175 8.35218 6.68948 6.41346 8.30063C4.49308 9.89656 3.20898 12.0298 3.20898 14.0608H4.61152C4.61152 12.5748 5.58661 10.7931 7.31899 9.35343C9.03302 7.92899 11.3993 6.92038 14.0029 6.92038V5.54175Z" fill="white"/>
</svg>
