<svg width="28" height="28" viewBox="0 0 28 28" fill="none" xmlns="http://www.w3.org/2000/svg">
<path fill-rule="evenodd" clip-rule="evenodd" d="M5.29634 2.33337H9.23968C10.8847 2.33337 12.203 3.67504 12.203 5.3212V9.29837C12.203 10.955 10.8847 12.285 9.23968 12.285H5.29634C3.66301 12.285 2.33301 10.955 2.33301 9.29837V5.3212C2.33301 3.67504 3.66301 2.33337 5.29634 2.33337ZM5.29634 15.7147H9.23968C10.8847 15.7147 12.203 17.0459 12.203 18.7025V22.6797C12.203 24.3247 10.8847 25.6664 9.23968 25.6664H5.29634C3.66301 25.6664 2.33301 24.3247 2.33301 22.6797V18.7025C2.33301 17.0459 3.66301 15.7147 5.29634 15.7147ZM22.7035 2.33337H18.7602C17.1152 2.33337 15.7969 3.67504 15.7969 5.3212V9.29837C15.7969 10.955 17.1152 12.285 18.7602 12.285H22.7035C24.3369 12.285 25.6669 10.955 25.6669 9.29837V5.3212C25.6669 3.67504 24.3369 2.33337 22.7035 2.33337ZM18.7602 15.7147H22.7035C24.3369 15.7147 25.6669 17.0459 25.6669 18.7025V22.6797C25.6669 24.3247 24.3369 25.6664 22.7035 25.6664H18.7602C17.1152 25.6664 15.7969 24.3247 15.7969 22.6797V18.7025C15.7969 17.0459 17.1152 15.7147 18.7602 15.7147Z" fill="#D9D9D9"/>
</svg>
