<svg width="28" height="28" viewBox="0 0 28 28" fill="none" xmlns="http://www.w3.org/2000/svg">
<path d="M18.0319 18.758C18.4164 18.758 18.7281 18.4442 18.7281 18.057C18.7281 17.6698 18.4164 17.356 18.0319 17.356V18.758ZM10.2119 17.356C9.82736 17.356 9.51562 17.6698 9.51562 18.057C9.51562 18.4442 9.82736 18.758 10.2119 18.758V17.356ZM18.0319 17.356H10.2119V18.758H18.0319V17.356Z" fill="white"/>
<path d="M18.0319 14.1926C18.4164 14.1926 18.7281 13.8787 18.7281 13.4916C18.7281 13.1044 18.4164 12.7905 18.0319 12.7905V14.1926ZM10.2119 12.7905C9.82736 12.7905 9.51562 13.1044 9.51562 13.4916C9.51562 13.8787 9.82736 14.1926 10.2119 14.1926V12.7905ZM18.0319 12.7905H10.2119V14.1926H18.0319V12.7905Z" fill="white"/>
<path d="M13.1968 9.6378C13.5814 9.6378 13.8931 9.32393 13.8931 8.93676C13.8931 8.54959 13.5814 8.23572 13.1968 8.23572V9.6378ZM10.2129 8.23572C9.82834 8.23572 9.5166 8.54959 9.5166 8.93676C9.5166 9.32393 9.82834 9.6378 10.2129 9.6378V8.23572ZM13.1968 8.23572H10.2129V9.6378H13.1968V8.23572Z" fill="white"/>
<path d="M18.2405 3.90917V3.20813H18.2402L18.2405 3.90917ZM9.91262 3.91353V3.21248L9.90833 3.21251L9.91262 3.91353ZM9.95269 23.9854V24.6865H9.95296L9.95269 23.9854ZM18.2806 23.9821V24.6832H18.2849L18.2806 23.9821ZM18.2405 3.90917C18.2402 3.20813 18.2402 3.20813 18.2401 3.20813C18.2401 3.20813 18.24 3.20813 18.2398 3.20813C18.2396 3.20813 18.2392 3.20813 18.2387 3.20813C18.2377 3.20813 18.2362 3.20813 18.2342 3.20813C18.2301 3.20814 18.2242 3.20814 18.2163 3.20814C18.2006 3.20815 18.1773 3.20816 18.1469 3.20818C18.0859 3.20821 17.9966 3.20826 17.8829 3.20832C17.6555 3.20844 17.3306 3.20861 16.9408 3.20881C16.1611 3.20922 15.1213 3.20977 14.0811 3.21031C13.0409 3.21086 12.0003 3.2114 11.219 3.21181C10.8283 3.21201 10.5024 3.21219 10.2738 3.2123C10.1595 3.21236 10.0695 3.21241 10.0079 3.21244C9.97712 3.21246 9.95341 3.21247 9.9373 3.21248C9.92924 3.21248 9.92309 3.21249 9.9189 3.21249C9.91452 3.21249 9.91259 3.21249 9.91262 3.21249V4.61458C9.91936 4.61458 12.0017 4.61349 14.0818 4.61239C15.122 4.61185 16.1618 4.6113 16.9416 4.61089C17.3314 4.61069 17.6562 4.61052 17.8836 4.6104C17.9973 4.61034 18.0866 4.61029 18.1475 4.61026C18.178 4.61025 18.2014 4.61023 18.217 4.61023C18.2249 4.61022 18.2309 4.61022 18.2349 4.61022C18.2369 4.61022 18.2384 4.61021 18.2394 4.61021C18.2399 4.61021 18.2403 4.61021 18.2405 4.61021C18.2407 4.61021 18.2408 4.61021 18.2408 4.61021C18.2409 4.61021 18.2409 4.61021 18.2405 3.90917ZM9.90833 3.21251C8.2574 3.22274 6.85677 3.77886 5.86976 4.81139C4.88534 5.84121 4.37598 7.27814 4.37598 8.93315H5.76853C5.76853 7.56744 6.18467 6.50384 6.8731 5.78366C7.55894 5.06619 8.57849 4.62286 9.9169 4.61456L9.90833 3.21251ZM4.37598 8.93315V18.9615H5.76853V8.93315H4.37598ZM4.37598 18.9615C4.37598 20.6244 4.88908 22.068 5.88158 23.0997C6.87673 24.1341 8.28865 24.6865 9.95269 24.6865V23.2844C8.6014 23.2844 7.5731 22.8427 6.88185 22.1242C6.18797 21.403 5.76853 20.3345 5.76853 18.9615H4.37598ZM9.95269 23.9854C9.95296 24.6865 9.953 24.6865 9.95306 24.6865C9.95312 24.6865 9.95322 24.6865 9.95334 24.6865C9.9536 24.6865 9.95398 24.6865 9.95448 24.6865C9.95549 24.6865 9.95699 24.6865 9.95899 24.6865C9.96299 24.6865 9.96895 24.6865 9.97681 24.6865C9.99255 24.6865 10.0159 24.6865 10.0463 24.6865C10.1072 24.6865 10.1965 24.6864 10.3102 24.6864C10.5376 24.6863 10.8624 24.6862 11.2522 24.686C12.0319 24.6857 13.0715 24.6852 14.1117 24.6849C15.1517 24.6844 16.1924 24.684 16.9738 24.6838C17.3644 24.6836 17.6904 24.6835 17.919 24.6834C18.0333 24.6833 18.1234 24.6833 18.185 24.6833C18.2159 24.6833 18.2396 24.6833 18.2558 24.6832C18.2638 24.6832 18.2701 24.6832 18.2742 24.6832C18.2764 24.6832 18.2779 24.6832 18.2791 24.6832C18.2803 24.6832 18.2807 24.6832 18.2806 24.6832V23.2811C18.2734 23.2811 16.1912 23.2819 14.1111 23.2828C13.071 23.2832 12.0313 23.2836 11.2517 23.2839C10.8619 23.2841 10.537 23.2842 10.3097 23.2843C10.196 23.2843 10.1067 23.2844 10.0458 23.2844C10.0153 23.2844 9.992 23.2844 9.97627 23.2844C9.96841 23.2844 9.96244 23.2844 9.95845 23.2844C9.95645 23.2844 9.95494 23.2844 9.95394 23.2844C9.95343 23.2844 9.95306 23.2844 9.95281 23.2844C9.95268 23.2844 9.95258 23.2844 9.95252 23.2844C9.95245 23.2844 9.95242 23.2844 9.95269 23.9854ZM18.2849 24.6832C19.9359 24.673 21.3368 24.1166 22.3241 23.0838C23.3087 22.0537 23.8184 20.6166 23.8184 18.9615H22.4258C22.4258 20.3271 22.0094 21.391 21.3207 22.1115C20.6345 22.8294 19.6147 23.2729 18.2764 23.2811L18.2849 24.6832ZM23.8184 18.9615V8.93315H22.4258V18.9615H23.8184ZM23.8184 8.93315C23.8184 7.27012 23.3049 5.82651 22.3122 4.79485C21.3168 3.76047 19.9046 3.20813 18.2405 3.20813V4.61021C19.5919 4.61021 20.6205 5.05188 21.312 5.77048C22.0062 6.49182 22.4258 7.56021 22.4258 8.93315H23.8184Z" fill="white"/>
</svg>
