<svg width="20" height="20" viewBox="0 0 20 20" fill="none" xmlns="http://www.w3.org/2000/svg">
<path d="M8.74824 13.7348C9.12056 13.7348 9.42239 13.4363 9.42239 13.0682C9.42239 12.7 9.12056 12.4015 8.74824 12.4015V13.7348ZM4.02864 12.4015C3.65632 12.4015 3.35449 12.7 3.35449 13.0682C3.35449 13.4363 3.65632 13.7348 4.02864 13.7348V12.4015ZM8.74824 12.4015H4.02864V13.7348H8.74824V12.4015Z" fill="#1AADB6"/>
<path d="M10.8538 5.2218C10.4815 5.2218 10.1797 5.52028 10.1797 5.88847C10.1797 6.25666 10.4815 6.55514 10.8538 6.55514V5.2218ZM15.5734 6.55514C15.9458 6.55514 16.2476 6.25666 16.2476 5.88847C16.2476 5.52028 15.9458 5.2218 15.5734 5.2218V6.55514ZM10.8538 6.55514H15.5734V5.2218H10.8538V6.55514Z" fill="#1AADB6"/>
<path d="M8.22157 6.15463C8.22157 4.8222 7.12256 3.75 5.77729 3.75V5.08333C6.38704 5.08333 6.87326 5.56757 6.87326 6.15463H8.22157ZM5.77729 3.75C4.43203 3.75 3.33301 4.8222 3.33301 6.15463H4.68131C4.68131 5.56757 5.16754 5.08333 5.77729 5.08333V3.75ZM3.33301 6.15463C3.33301 7.48706 4.43203 8.55926 5.77729 8.55926V7.22592C5.16754 7.22592 4.68131 6.74168 4.68131 6.15463H3.33301ZM5.77729 8.55926C7.12256 8.55926 8.22157 7.48706 8.22157 6.15463H6.87326C6.87326 6.74168 6.38704 7.22592 5.77729 7.22592V8.55926Z" fill="#1AADB6"/>
<path d="M16.6659 13.3454C16.6659 12.0133 15.5678 10.9408 14.2222 10.9408V12.2741C14.8317 12.2741 15.3176 12.7581 15.3176 13.3454H16.6659ZM14.2222 10.9408C12.8765 10.9408 11.7773 12.0128 11.7773 13.3454H13.1256C13.1256 12.7585 13.6117 12.2741 14.2222 12.2741V10.9408ZM11.7773 13.3454C11.7773 14.678 12.8765 15.7501 14.2222 15.7501V14.4167C13.6117 14.4167 13.1256 13.9323 13.1256 13.3454H11.7773ZM14.2222 15.7501C15.5678 15.7501 16.6659 14.6776 16.6659 13.3454H15.3176C15.3176 13.9328 14.8317 14.4167 14.2222 14.4167V15.7501Z" fill="#1AADB6"/>
</svg>
