<svg width="32" height="32" viewBox="0 0 32 32" fill="none" xmlns="http://www.w3.org/2000/svg">
<path d="M25.333 9.3333H14.6663V18.6666H3.99968V6.66663H1.33301V26.6666H3.99968V22.6666H27.9997V26.6666H30.6663V14.6666C30.6663 13.2521 30.1044 11.8956 29.1042 10.8954C28.104 9.8952 26.7475 9.3333 25.333 9.3333ZM9.33301 17.3333C10.3939 17.3333 11.4113 16.9118 12.1614 16.1617C12.9116 15.4116 13.333 14.3942 13.333 13.3333C13.333 12.2724 12.9116 11.255 12.1614 10.5049C11.4113 9.75472 10.3939 9.3333 9.33301 9.3333C8.27214 9.3333 7.25473 9.75472 6.50458 10.5049C5.75444 11.255 5.33301 12.2724 5.33301 13.3333C5.33301 14.3942 5.75444 15.4116 6.50458 16.1617C7.25473 16.9118 8.27214 17.3333 9.33301 17.3333Z" fill="#1AADB6"/>
</svg>
