<svg width="83" height="80" viewBox="0 0 83 80" fill="none" xmlns="http://www.w3.org/2000/svg">
<circle cx="42.5" cy="40.5" r="31.5" fill="url(#paint0_linear_8_2300)"/>
<circle cx="79.5" cy="12.5" r="3.5" fill="#F75555"/>
<circle cx="8.5" cy="4.5" r="4.5" fill="#F75555"/>
<circle cx="4" cy="59" r="2" fill="#F75555"/>
<circle cx="73" cy="71" r="1" fill="#F75555"/>
<path fill-rule="evenodd" clip-rule="evenodd" d="M37.3105 29.1663H46.703C50.3755 29.1663 52.8347 31.7446 52.8347 35.5796V44.4315C52.8347 48.2557 50.3755 50.833 46.703 50.833H37.3105C33.638 50.833 31.168 48.2557 31.168 44.4315V35.5796C31.168 31.7446 33.638 29.1663 37.3105 29.1663ZM45.2627 43.2496C45.6311 42.8824 45.6311 42.2865 45.2627 41.9182L43.3344 39.9899L45.2627 38.0604C45.6311 37.6932 45.6311 37.0865 45.2627 36.7182C44.8944 36.3487 44.2986 36.3487 43.9194 36.7182L42.0019 38.6454L40.0735 36.7182C39.6944 36.3487 39.0985 36.3487 38.7302 36.7182C38.3619 37.0865 38.3619 37.6932 38.7302 38.0604L40.6585 39.9899L38.7302 41.9074C38.3619 42.2865 38.3619 42.8824 38.7302 43.2496C38.9144 43.4338 39.1635 43.5324 39.4019 43.5324C39.651 43.5324 39.8894 43.4338 40.0735 43.2496L42.0019 41.3332L43.9302 43.2496C44.1144 43.4457 44.3527 43.5324 44.5911 43.5324C44.8402 43.5324 45.0786 43.4338 45.2627 43.2496Z" fill="white"/>
<circle cx="47" cy="2" r="1" fill="#F75555"/>
<circle cx="27.5" cy="78.5" r="1.5" fill="#F75555"/>
<circle cx="54.5" cy="76.5" r="0.5" fill="#F75555"/>
<circle cx="76" cy="49" r="1" fill="#F75555"/>
<circle cx="0.5" cy="33.5" r="0.5" fill="#F75555"/>
<defs>
<linearGradient id="paint0_linear_8_2300" x1="-11.2739" y1="31.2739" x2="33.2739" y2="75.8216" gradientUnits="userSpaceOnUse">
<stop stop-color="#FF4D67"/>
<stop offset="1" stop-color="#FF8A9B"/>
</linearGradient>
</defs>
</svg>
