<svg width="48" height="18" viewBox="0 0 48 18" fill="none" xmlns="http://www.w3.org/2000/svg">
<path d="M45.9467 7.94696C46.2396 7.65406 46.2396 7.17919 45.9467 6.8863C45.6538 6.5934 45.1789 6.5934 44.886 6.8863L45.9467 7.94696ZM40.7497 12.0833L40.2193 12.6136C40.5122 12.9065 40.9871 12.9065 41.28 12.6136L40.7497 12.0833ZM36.6133 6.8863C36.3204 6.5934 35.8456 6.5934 35.5527 6.8863C35.2598 7.17919 35.2598 7.65406 35.5527 7.94696L36.6133 6.8863ZM44.886 6.8863L40.2193 11.553L41.28 12.6136L45.9467 7.94696L44.886 6.8863ZM41.28 11.553L36.6133 6.8863L35.5527 7.94696L40.2193 12.6136L41.28 11.553Z" fill="white"/>
</svg>
