<svg width="32" height="32" viewBox="0 0 32 32" fill="none" xmlns="http://www.w3.org/2000/svg">
<g clip-path="url(#clip0_8_6317)">
<path d="M15.9993 31.3333C24.4677 31.3333 31.3327 24.4683 31.3327 15.9999C31.3327 7.5316 24.4677 0.666626 15.9993 0.666626C7.53098 0.666626 0.666016 7.5316 0.666016 15.9999C0.666016 24.4683 7.53098 31.3333 15.9993 31.3333Z" fill="#1AADB6"/>
<path d="M13.332 15.1666C13.332 15.9951 12.6605 16.6666 11.832 16.6666V17.6666C13.2127 17.6666 14.332 16.5473 14.332 15.1666H13.332ZM11.832 16.6666C11.0036 16.6666 10.332 15.9951 10.332 15.1666H9.33203C9.33203 16.5473 10.4513 17.6666 11.832 17.6666V16.6666ZM10.332 15.1666C10.332 14.3382 11.0036 13.6666 11.832 13.6666V12.6666C10.4513 12.6666 9.33203 13.7859 9.33203 15.1666H10.332ZM11.832 13.6666C12.6605 13.6666 13.332 14.3382 13.332 15.1666H14.332C14.332 13.7859 13.2127 12.6666 11.832 12.6666V13.6666Z" fill="white"/>
<path d="M23.832 17.1668V17.6668C24.1081 17.6668 24.332 17.4429 24.332 17.1668H23.832ZM15.1654 17.1668H14.6654C14.6654 17.4429 14.8892 17.6668 15.1654 17.6668V17.1668ZM15.1654 13.1668V12.6668C14.8892 12.6668 14.6654 12.8906 14.6654 13.1668H15.1654ZM19.988 13.1668V13.6668V13.1668ZM8.33203 10.5001C8.33203 10.224 8.10817 10.0001 7.83203 10.0001C7.55589 10.0001 7.33203 10.224 7.33203 10.5001H8.33203ZM7.83203 22.5001H7.33203C7.33203 22.7762 7.55589 23.0001 7.83203 23.0001V22.5001ZM25.1653 22.5001V23.0001C25.4415 23.0001 25.6653 22.7762 25.6653 22.5001H25.1653ZM25.1653 17.1668H25.6653C25.6653 16.8906 25.4415 16.6668 25.1653 16.6668V17.1668ZM7.83203 17.1668V16.6668C7.55589 16.6668 7.33203 16.8906 7.33203 17.1668H7.83203ZM25.1653 20.3335C25.4415 20.3335 25.6653 20.1096 25.6653 19.8335C25.6653 19.5573 25.4415 19.3335 25.1653 19.3335V20.3335ZM7.83203 19.3335C7.55589 19.3335 7.33203 19.5573 7.33203 19.8335C7.33203 20.1096 7.55589 20.3335 7.83203 20.3335V19.3335ZM23.832 16.6668H15.1654V17.6668H23.832V16.6668ZM15.6654 17.1668V13.1668H14.6654V17.1668H15.6654ZM15.1654 13.6668H19.988V12.6668H15.1654V13.6668ZM19.988 13.6668C20.8749 13.6668 21.7254 14.0191 22.3526 14.6462L23.0597 13.9391C22.245 13.1245 21.1401 12.6668 19.988 12.6668V13.6668ZM22.3526 14.6462C22.9797 15.2733 23.332 16.1239 23.332 17.0108H24.332C24.332 15.8587 23.8743 14.7538 23.0597 13.9391L22.3526 14.6462ZM23.332 17.0108V17.1668H24.332V17.0108H23.332ZM7.33203 10.5001V22.5001H8.33203V10.5001H7.33203ZM25.6653 22.5001V17.1668H24.6653V22.5001H25.6653ZM25.1653 16.6668H7.83203V17.6668H25.1653V16.6668ZM25.1653 19.3335H7.83203V20.3335H25.1653V19.3335ZM7.33203 17.1668V22.5001H8.33203V17.1668H7.33203ZM7.83203 23.0001H25.1653V22.0001H7.83203V23.0001Z" fill="white"/>
</g>
<defs>
<clipPath id="clip0_8_6317">
<rect width="32" height="32" fill="white"/>
</clipPath>
</defs>
</svg>
