<svg width="28" height="28" viewBox="0 0 28 28" fill="none" xmlns="http://www.w3.org/2000/svg">
<path d="M14.0008 4.61104C19.1856 4.61104 23.3899 8.81438 23.3899 14.0003H24.7925C24.7925 8.03968 19.9602 3.2085 14.0008 3.2085V4.61104ZM23.3899 14.0003C23.3899 19.1851 19.1856 23.3895 14.0008 23.3895V24.792C19.9602 24.792 24.7925 19.9597 24.7925 14.0003H23.3899ZM14.0008 23.3895C8.81487 23.3895 4.61152 19.1851 4.61152 14.0003H3.20898C3.20898 19.9597 8.04017 24.792 14.0008 24.792V23.3895ZM4.61152 14.0003C4.61152 8.81543 8.81592 4.61104 14.0008 4.61104V3.2085C8.04131 3.2085 3.20898 8.04083 3.20898 14.0003H4.61152Z" fill="white"/>
<path d="M17.9907 12.7675C17.4743 12.7675 17.0557 13.1861 17.0557 13.7025C17.0557 14.2189 17.4743 14.6375 17.9907 14.6375V12.7675ZM18.0005 14.6375C18.5169 14.6375 18.9355 14.2189 18.9355 13.7025C18.9355 13.1861 18.5169 12.7675 18.0005 12.7675V14.6375ZM17.9907 14.6375H18.0005V12.7675H17.9907V14.6375Z" fill="white"/>
<path d="M13.6176 12.7675C13.1012 12.7675 12.6826 13.1861 12.6826 13.7025C12.6826 14.2189 13.1012 14.6375 13.6176 14.6375V12.7675ZM13.6275 14.6375C14.1439 14.6375 14.5625 14.2189 14.5625 13.7025C14.5625 13.1861 14.1439 12.7675 13.6275 12.7675V14.6375ZM13.6176 14.6375H13.6275V12.7675H13.6176V14.6375Z" fill="white"/>
<path d="M9.2446 12.7675C8.7282 12.7675 8.30957 13.1861 8.30957 13.7025C8.30957 14.2189 8.7282 14.6375 9.2446 14.6375V12.7675ZM9.25441 14.6375C9.77082 14.6375 10.1894 14.2189 10.1894 13.7025C10.1894 13.1861 9.77082 12.7675 9.25441 12.7675V14.6375ZM9.2446 14.6375H9.25441V12.7675H9.2446V14.6375Z" fill="white"/>
</svg>
