<svg width="28" height="28" viewBox="0 0 28 28" fill="none" xmlns="http://www.w3.org/2000/svg">
<path d="M4.89999 8.01112C4.89999 7.2835 4.90304 6.73595 4.95835 6.29724C5.01297 5.86398 5.1097 5.62561 5.23274 5.47303C5.34794 5.33019 5.55107 5.18274 5.99089 5.0725C6.44183 4.95948 7.08481 4.9 8.01108 4.9V3.5C7.04712 3.5 6.26859 3.55959 5.65053 3.7145C5.02135 3.8722 4.50799 4.14155 4.14298 4.59417C3.78582 5.03705 3.63861 5.5728 3.56936 6.12212C3.50079 6.66598 3.50001 7.30946 3.50001 8.01112H4.89999ZM8.01108 4.9C8.93736 4.9 9.58033 4.95948 10.0313 5.0725C10.4711 5.18274 10.6742 5.33019 10.7894 5.47303C10.9125 5.62561 11.0092 5.86398 11.0638 6.29724C11.1191 6.73595 11.1222 7.2835 11.1222 8.01112H12.5222C12.5222 7.30946 12.5214 6.66598 12.4528 6.12212C12.3836 5.5728 12.2363 5.03705 11.8792 4.59417C11.5142 4.14155 11.0008 3.8722 10.3716 3.7145C9.75357 3.55959 8.97504 3.5 8.01108 3.5V4.9ZM11.1222 8.01112C11.1222 8.74123 11.1218 9.28902 11.0692 9.72966C11.0173 10.1649 10.9231 10.4016 10.803 10.5522C10.6913 10.6922 10.4917 10.8393 10.0499 10.9496C9.59689 11.0627 8.94855 11.1223 8.01108 11.1223V12.5223C8.98518 12.5223 9.76902 12.4627 10.389 12.3079C11.0202 12.1503 11.5344 11.8805 11.8976 11.4251C12.2524 10.9802 12.3941 10.4429 12.4594 9.89549C12.524 9.35356 12.5222 8.71031 12.5222 8.01112H11.1222ZM8.01108 11.1223C7.07362 11.1223 6.42527 11.0627 5.97229 10.9496C5.53049 10.8393 5.33082 10.6922 5.21914 10.5522C5.09905 10.4016 5.00484 10.1649 4.95292 9.72966C4.90035 9.28902 4.89999 8.74123 4.89999 8.01112H3.50001C3.50001 8.71031 3.49814 9.35356 3.56279 9.89549C3.62808 10.4429 3.7698 10.9802 4.1246 11.4251C4.48778 11.8805 5.00193 12.1503 5.63313 12.3079C6.25315 12.4627 7.03698 12.5223 8.01108 12.5223V11.1223Z" fill="white"/>
<path d="M16.8775 8.01112C16.8775 7.2835 16.8806 6.73595 16.9359 6.29724C16.9905 5.86398 17.0872 5.62561 17.2103 5.47303C17.3255 5.33019 17.5286 5.18274 17.9684 5.0725C18.4194 4.95948 19.0623 4.9 19.9886 4.9V3.5C19.0247 3.5 18.2461 3.55959 17.6281 3.7145C16.9989 3.8722 16.4855 4.14155 16.1205 4.59417C15.7634 5.03705 15.6162 5.5728 15.5469 6.12212C15.4783 6.66598 15.4775 7.30946 15.4775 8.01112H16.8775ZM19.9886 4.9C20.9149 4.9 21.5579 4.95948 22.0088 5.0725C22.4486 5.18274 22.6518 5.33019 22.767 5.47303C22.89 5.62561 22.9867 5.86398 23.0413 6.29724C23.0967 6.73595 23.0997 7.2835 23.0997 8.01112H24.4997C24.4997 7.30946 24.4989 6.66598 24.4303 6.12212C24.3611 5.5728 24.2139 5.03705 23.8567 4.59417C23.4917 4.14155 22.9783 3.8722 22.3492 3.7145C21.7311 3.55959 20.9526 3.5 19.9886 3.5V4.9ZM23.0997 8.01112C23.0997 8.74123 23.0993 9.28902 23.0468 9.72966C22.9949 10.1649 22.9007 10.4016 22.7806 10.5522C22.6689 10.6922 22.4692 10.8393 22.0274 10.9496C21.5744 11.0627 20.9261 11.1223 19.9886 11.1223V12.5223C20.9627 12.5223 21.7466 12.4627 22.3666 12.3079C22.9978 12.1503 23.5119 11.8805 23.8751 11.4251C24.2299 10.9802 24.3716 10.4429 24.4369 9.89549C24.5016 9.35356 24.4997 8.71031 24.4997 8.01112H23.0997ZM19.9886 11.1223C19.0512 11.1223 18.4028 11.0627 17.9498 10.9496C17.508 10.8393 17.3084 10.6922 17.1967 10.5522C17.0766 10.4016 16.9824 10.1649 16.9305 9.72966C16.8779 9.28902 16.8775 8.74123 16.8775 8.01112H15.4775C15.4775 8.71031 15.4757 9.35356 15.5403 9.89549C15.6056 10.4429 15.7473 10.9802 16.1021 11.4251C16.4653 11.8805 16.9795 12.1503 17.6107 12.3079C18.2307 12.4627 19.0145 12.5223 19.9886 12.5223V11.1223Z" fill="white"/>
<path d="M4.89999 19.9889C4.89999 19.2613 4.90304 18.7137 4.95835 18.275C5.01297 17.8418 5.1097 17.6034 5.23274 17.4508C5.34794 17.308 5.55107 17.1605 5.99089 17.0503C6.44183 16.9373 7.08481 16.8778 8.01108 16.8778V15.4778C7.04712 15.4778 6.26859 15.5374 5.65053 15.6923C5.02135 15.85 4.50799 16.1193 4.14298 16.5719C3.78582 17.0148 3.63861 17.5506 3.56936 18.0999C3.50079 18.6438 3.50001 19.2872 3.50001 19.9889H4.89999ZM8.01108 16.8778C8.93736 16.8778 9.58033 16.9373 10.0313 17.0503C10.4711 17.1605 10.6742 17.308 10.7894 17.4508C10.9125 17.6034 11.0092 17.8418 11.0638 18.275C11.1191 18.7137 11.1222 19.2613 11.1222 19.9889H12.5222C12.5222 19.2872 12.5214 18.6438 12.4528 18.0999C12.3836 17.5506 12.2363 17.0148 11.8792 16.5719C11.5142 16.1193 11.0008 15.85 10.3716 15.6923C9.75357 15.5374 8.97504 15.4778 8.01108 15.4778V16.8778ZM11.1222 19.9889C11.1222 20.719 11.1218 21.2668 11.0692 21.7074C11.0173 22.1427 10.9231 22.3794 10.803 22.53C10.6913 22.67 10.4917 22.8171 10.0499 22.9274C9.59689 23.0405 8.94855 23.1 8.01108 23.1V24.5C8.98518 24.5 9.76902 24.4405 10.389 24.2857C11.0202 24.1281 11.5344 23.8583 11.8976 23.4029C12.2524 22.958 12.3941 22.4206 12.4594 21.8733C12.524 21.3313 12.5222 20.6881 12.5222 19.9889H11.1222ZM8.01108 23.1C7.07362 23.1 6.42527 23.0405 5.97229 22.9274C5.53049 22.8171 5.33082 22.67 5.21914 22.53C5.09905 22.3794 5.00484 22.1427 4.95292 21.7074C4.90035 21.2668 4.89999 20.719 4.89999 19.9889H3.50001C3.50001 20.6881 3.49814 21.3313 3.56279 21.8733C3.62808 22.4206 3.7698 22.958 4.1246 23.4029C4.48778 23.8583 5.00193 24.1281 5.63313 24.2857C6.25315 24.4405 7.03698 24.5 8.01108 24.5V23.1Z" fill="white"/>
<path d="M16.8775 19.9889C16.8775 19.2613 16.8806 18.7137 16.9359 18.275C16.9905 17.8418 17.0872 17.6034 17.2103 17.4508C17.3255 17.308 17.5286 17.1605 17.9684 17.0503C18.4194 16.9373 19.0623 16.8778 19.9886 16.8778V15.4778C19.0247 15.4778 18.2461 15.5374 17.6281 15.6923C16.9989 15.85 16.4855 16.1193 16.1205 16.5719C15.7634 17.0148 15.6162 17.5506 15.5469 18.0999C15.4783 18.6438 15.4775 19.2872 15.4775 19.9889H16.8775ZM19.9886 16.8778C20.9149 16.8778 21.5579 16.9373 22.0088 17.0503C22.4486 17.1605 22.6518 17.308 22.767 17.4508C22.89 17.6034 22.9867 17.8418 23.0413 18.275C23.0967 18.7137 23.0997 19.2613 23.0997 19.9889H24.4997C24.4997 19.2872 24.4989 18.6438 24.4303 18.0999C24.3611 17.5506 24.2139 17.0148 23.8567 16.5719C23.4917 16.1193 22.9783 15.85 22.3492 15.6923C21.7311 15.5374 20.9526 15.4778 19.9886 15.4778V16.8778ZM23.0997 19.9889C23.0997 20.719 23.0993 21.2668 23.0468 21.7074C22.9949 22.1427 22.9007 22.3794 22.7806 22.53C22.6689 22.67 22.4692 22.8171 22.0274 22.9274C21.5744 23.0405 20.9261 23.1 19.9886 23.1V24.5C20.9627 24.5 21.7466 24.4405 22.3666 24.2857C22.9978 24.1281 23.5119 23.8583 23.8751 23.4029C24.2299 22.958 24.3716 22.4206 24.4369 21.8733C24.5016 21.3313 24.4997 20.6881 24.4997 19.9889H23.0997ZM19.9886 23.1C19.0512 23.1 18.4028 23.0405 17.9498 22.9274C17.508 22.8171 17.3084 22.67 17.1967 22.53C17.0766 22.3794 16.9824 22.1427 16.9305 21.7074C16.8779 21.2668 16.8775 20.719 16.8775 19.9889H15.4775C15.4775 20.6881 15.4757 21.3313 15.5403 21.8733C15.6056 22.4206 15.7473 22.958 16.1021 23.4029C16.4653 23.8583 16.9795 24.1281 17.6107 24.2857C18.2307 24.4405 19.0145 24.5 19.9886 24.5V23.1Z" fill="white"/>
</svg>
