<svg width="28" height="28" viewBox="0 0 28 28" fill="none" xmlns="http://www.w3.org/2000/svg">
<path d="M7.11614 24.4137L6.77726 23.8004H6.77724L7.11614 24.4137ZM13.9927 20.4975L14.3334 19.8853C14.1226 19.7644 13.8649 19.764 13.6538 19.8842L13.9927 20.4975ZM20.8098 24.4071L20.469 25.0194L20.4698 25.0198L20.8098 24.4071ZM23.0288 7.60209C23.0288 5.92108 22.4525 4.64229 21.3794 3.80766C20.3387 2.99815 18.928 2.68335 17.392 2.68335V4.0898C18.7738 4.0898 19.835 4.37816 20.5369 4.92411C21.2065 5.44492 21.6435 6.27389 21.6435 7.60209H23.0288ZM17.392 2.68335H10.5404V4.0898H17.392V2.68335ZM10.5404 2.68335C9.05351 2.68335 7.65116 2.97594 6.60288 3.73826C5.51679 4.52807 4.90039 5.75703 4.90039 7.4014H6.28574C6.28574 6.15501 6.72902 5.37656 7.40959 4.88165C8.12796 4.35924 9.19926 4.0898 10.5404 4.0898V2.68335ZM4.90039 7.4014V23.5079H6.28574V7.4014H4.90039ZM4.90039 23.5079C4.90039 24.8393 6.31166 25.6783 7.45505 25.027L6.77724 23.8004C6.55742 23.9256 6.28574 23.7645 6.28574 23.5079H4.90039ZM7.45502 25.027L14.3315 21.1109L13.6538 19.8842L6.77726 23.8004L7.45502 25.027ZM13.652 21.1098L20.469 25.0194L21.1505 23.7948L14.3334 19.8853L13.652 21.1098ZM20.4698 25.0198C21.6135 25.6739 23.0288 24.8363 23.0288 23.5024H21.6435C21.6435 23.7586 21.3714 23.9211 21.1497 23.7945L20.4698 25.0198ZM23.0288 23.5024V7.60209H21.6435V23.5024H23.0288Z" fill="white"/>
<path d="M9.97978 9.49487C9.59723 9.49487 9.28711 9.80972 9.28711 10.1981C9.28711 10.5865 9.59723 10.9013 9.97978 10.9013V9.49487ZM17.8652 10.9013C18.2478 10.9013 18.5579 10.5865 18.5579 10.1981C18.5579 9.80972 18.2478 9.49487 17.8652 9.49487V10.9013ZM9.97978 10.9013H17.8652V9.49487H9.97978V10.9013Z" fill="white"/>
</svg>
