<svg width="28" height="28" viewBox="0 0 28 28" fill="none" xmlns="http://www.w3.org/2000/svg">
<path d="M17.107 11.8723C17.3809 11.5984 17.3809 11.1544 17.107 10.8806C16.8332 10.6067 16.3892 10.6067 16.1153 10.8806L17.107 11.8723ZM10.888 16.1079C10.6142 16.3818 10.6142 16.8258 10.888 17.0997C11.1619 17.3735 11.6059 17.3735 11.8797 17.0997L10.888 16.1079ZM16.1153 10.8806L10.888 16.1079L11.8797 17.0997L17.107 11.8723L16.1153 10.8806Z" fill="#BDBDBD"/>
<path d="M16.1211 17.1063C16.395 17.3802 16.839 17.3802 17.1128 17.1063C17.3867 16.8325 17.3867 16.3884 17.1128 16.1146L16.1211 17.1063ZM11.8768 10.8785C11.6029 10.6046 11.1589 10.6046 10.8851 10.8785C10.6112 11.1523 10.6112 11.5964 10.8851 11.8702L11.8768 10.8785ZM17.1128 16.1146L11.8768 10.8785L10.8851 11.8702L16.1211 17.1063L17.1128 16.1146Z" fill="#BDBDBD"/>
<path d="M3.20801 14.0002C3.20801 17.8226 3.83623 20.5943 5.62085 22.3789C7.40547 24.1635 10.1771 24.7917 13.9996 24.7917V23.3892C10.2548 23.3892 7.98129 22.7559 6.61258 21.3872C5.24385 20.0184 4.61052 17.7449 4.61052 14.0002H3.20801ZM13.9996 24.7917C17.822 24.7917 20.5936 24.1635 22.3782 22.3789C24.1628 20.5943 24.791 17.8226 24.791 14.0002H23.3885C23.3885 17.7449 22.7552 20.0184 21.3865 21.3872C20.0177 22.7559 17.7443 23.3892 13.9996 23.3892V24.7917ZM24.791 14.0002C24.791 10.1776 24.1628 7.40601 22.3782 5.62137C20.5936 3.83673 17.822 3.2085 13.9996 3.2085V4.61102C17.7443 4.61102 20.0177 5.24436 21.3865 6.6131C22.7552 7.98184 23.3885 10.2554 23.3885 14.0002H24.791ZM13.9996 3.2085C10.1771 3.2085 7.40547 3.83673 5.62085 5.62137C3.83623 7.40601 3.20801 10.1776 3.20801 14.0002H4.61052C4.61052 10.2554 5.24385 7.98184 6.61258 6.6131C7.98129 5.24436 10.2548 4.61102 13.9996 4.61102V3.2085Z" fill="#BDBDBD"/>
</svg>
