<svg width="20" height="20" viewBox="0 0 20 20" fill="none" xmlns="http://www.w3.org/2000/svg">
<path d="M14.7467 8.174C14.989 7.88438 14.9497 7.45396 14.6589 7.21264C14.3682 6.97132 13.9361 7.01048 13.6938 7.30011L14.7467 8.174ZM6.25422 7.29723C6.01036 7.00893 5.57806 6.97214 5.28865 7.21505C4.99923 7.45796 4.9623 7.88859 5.20615 8.17688L6.25422 7.29723ZM14.2203 7.73706C13.6938 7.30011 13.6939 7.30003 13.694 7.29996C13.694 7.29995 13.694 7.29989 13.694 7.29987C13.6941 7.29984 13.6941 7.29985 13.694 7.2999C13.6939 7.30001 13.6937 7.30029 13.6933 7.30074C13.6926 7.30164 13.6912 7.30322 13.6893 7.30547C13.6855 7.30997 13.6794 7.31711 13.6712 7.32673C13.6547 7.34597 13.6296 7.37507 13.5965 7.41262C13.5304 7.48776 13.4328 7.59646 13.3099 7.72749C13.0632 7.99042 12.7182 8.33893 12.3225 8.68531C11.9243 9.03385 11.4896 9.36718 11.0636 9.61005C10.6266 9.85916 10.262 9.97646 9.9886 9.97646V11.3417C10.609 11.3417 11.2203 11.0937 11.7443 10.7949C12.2793 10.4899 12.7908 10.0928 13.2272 9.71079C13.6659 9.32668 14.0437 8.9447 14.3111 8.65975C14.4452 8.51684 14.5525 8.39726 14.627 8.31261C14.6643 8.27026 14.6934 8.23658 14.7136 8.21301C14.7237 8.20123 14.7316 8.19197 14.7371 8.18541C14.7399 8.18213 14.7421 8.17952 14.7437 8.17761C14.7445 8.17666 14.7452 8.17588 14.7457 8.17528C14.7459 8.17498 14.7461 8.17472 14.7463 8.17451C14.7464 8.1744 14.7465 8.17428 14.7466 8.17422C14.7467 8.17411 14.7467 8.174 14.2203 7.73706ZM9.9886 9.97646C9.71498 9.97646 9.34853 9.85891 8.90844 9.6093C8.47955 9.36605 8.04125 9.03229 7.63959 8.68351C7.24038 8.33686 6.8919 7.98811 6.64255 7.72502C6.51829 7.59391 6.41965 7.48514 6.35275 7.40992C6.31932 7.37234 6.29387 7.34321 6.27718 7.32394C6.26884 7.31431 6.26269 7.30715 6.25883 7.30263C6.2569 7.30038 6.25554 7.29879 6.25477 7.29788C6.25438 7.29742 6.25414 7.29714 6.25405 7.29703C6.254 7.29698 6.25399 7.29697 6.25402 7.297C6.25403 7.29702 6.25408 7.29707 6.25409 7.29708C6.25415 7.29715 6.25422 7.29723 5.73018 7.73706C5.20615 8.17688 5.20624 8.17699 5.20633 8.1771C5.20638 8.17715 5.20648 8.17728 5.20657 8.17738C5.20675 8.17759 5.20697 8.17785 5.20722 8.17815C5.20773 8.17875 5.20839 8.17952 5.2092 8.18047C5.21081 8.18237 5.21303 8.18497 5.21583 8.18824C5.22143 8.19479 5.22938 8.20404 5.23957 8.21581C5.25996 8.23934 5.28936 8.27299 5.327 8.3153C5.40224 8.39989 5.51065 8.51939 5.64601 8.66221C5.91592 8.947 6.297 9.32876 6.73903 9.71259C7.17863 10.0943 7.69325 10.4911 8.23033 10.7957C8.75621 11.0939 9.36878 11.3417 9.9886 11.3417V9.97646Z" fill="#1AADB6"/>
<path d="M3.41346 9.97386C3.41346 7.42408 3.8672 5.94308 4.78828 5.06482C5.7182 4.17812 7.29311 3.7419 9.9795 3.7419V2.37671C7.22743 2.37671 5.17669 2.80463 3.8406 4.07862C2.49563 5.36107 2.04297 7.33734 2.04297 9.97386H3.41346ZM9.9795 3.7419C12.6659 3.7419 14.2408 4.17812 15.1707 5.06482C16.0918 5.94308 16.5455 7.42408 16.5455 9.97386H17.916C17.916 7.33734 17.4634 5.36107 16.1184 4.07862C14.7823 2.80463 12.7315 2.37671 9.9795 2.37671V3.7419ZM16.5455 9.97386C16.5455 12.5232 16.0918 14.0042 15.1707 14.8826C14.2407 15.7694 12.6658 16.2059 9.9795 16.2059V17.571C12.7316 17.571 14.7823 17.1428 16.1184 15.8688C17.4634 14.5863 17.916 12.61 17.916 9.97386H16.5455ZM9.9795 16.2059C7.29316 16.2059 5.71825 15.7694 4.78829 14.8826C3.8672 14.0042 3.41346 12.5232 3.41346 9.97386H2.04297C2.04297 12.61 2.49565 14.5863 3.84057 15.8688C5.17666 17.1428 7.22737 17.571 9.9795 17.571V16.2059Z" fill="#1AADB6"/>
</svg>
