<svg width="22" height="27" viewBox="0 0 22 27" fill="none" xmlns="http://www.w3.org/2000/svg">
<path d="M8.9076 0.0130928L21.058 2.71319C21.211 2.74375 21.3487 2.82637 21.4476 2.94697C21.5465 3.06757 21.6006 3.21871 21.6007 3.37471V23.6254C21.6006 23.7814 21.5465 23.9326 21.4476 24.0531C21.3487 24.1737 21.211 24.2564 21.058 24.2869L8.9076 26.987C8.8097 27.0066 8.70869 27.0042 8.61183 26.98C8.51498 26.9558 8.42468 26.9104 8.34746 26.8472C8.27025 26.784 8.20803 26.7043 8.16528 26.6141C8.12254 26.5238 8.10033 26.4253 8.10027 26.3255V0.674615C8.10033 0.574785 8.12254 0.476211 8.16528 0.385995C8.20803 0.295779 8.27025 0.216168 8.34746 0.152896C8.42468 0.0896231 8.51498 0.0442657 8.61183 0.020091C8.70869 -0.00408367 8.8097 -0.00647389 8.9076 0.0130928ZM6.75023 2.69968V24.3004H1.01253C0.767855 24.3004 0.531457 24.2118 0.347055 24.0509C0.162654 23.8901 0.0427266 23.668 0.00945027 23.4256L0 23.2879V3.71221C1.03182e-05 3.46753 0.0886208 3.23114 0.249444 3.04674C0.410268 2.86234 0.632424 2.74241 0.874829 2.70914L1.01253 2.69968H6.75023ZM12.1504 12.15C11.7924 12.15 11.4489 12.2923 11.1958 12.5454C10.9426 12.7986 10.8004 13.142 10.8004 13.5C10.8004 13.8581 10.9426 14.2015 11.1958 14.4546C11.4489 14.7079 11.7924 14.8501 12.1504 14.8501C12.5084 14.8501 12.8519 14.7079 13.105 14.4546C13.3583 14.2015 13.5004 13.8581 13.5004 13.5C13.5004 13.142 13.3583 12.7986 13.105 12.5454C12.8519 12.2923 12.5084 12.15 12.1504 12.15Z" fill="#1AADB6"/>
</svg>
