<svg width="11" height="7" viewBox="0 0 11 7" fill="none" xmlns="http://www.w3.org/2000/svg">
<path d="M10.777 1.30004C11.0745 1.00264 11.0745 0.520452 10.777 0.223051C10.4796 -0.0743503 9.99745 -0.0743503 9.70004 0.223051L10.777 1.30004ZM5.50004 5.50004L4.96155 6.03854C5.25895 6.33594 5.74113 6.33594 6.03854 6.03854L5.50004 5.50004ZM1.30004 0.223051C1.00264 -0.0743503 0.520452 -0.0743503 0.223051 0.223051C-0.0743503 0.520452 -0.0743503 1.00264 0.223051 1.30004L1.30004 0.223051ZM9.70004 0.223051L4.96155 4.96155L6.03854 6.03854L10.777 1.30004L9.70004 0.223051ZM6.03854 4.96155L1.30004 0.223051L0.223051 1.30004L4.96155 6.03854L6.03854 4.96155Z" fill="#9E9E9E"/>
</svg>
