<svg width="27" height="27" viewBox="0 0 27 27" fill="none" xmlns="http://www.w3.org/2000/svg">
<path fill-rule="evenodd" clip-rule="evenodd" d="M0 13.5203C0 6.40859 5.68348 0 13.527 0C21.1949 0 27 6.28691 27 13.4797C27 21.8216 20.196 27 13.4999 27C11.286 27 8.82897 26.405 6.85798 25.2423C6.16948 24.8232 5.58898 24.5121 4.84649 24.7556L2.11949 25.5668C1.43099 25.7831 0.809998 25.2423 1.0125 24.5121L1.91699 21.4837C2.06549 21.0645 2.03849 20.6184 1.82249 20.2668C0.661498 18.1307 0 15.7916 0 13.5203ZM11.745 13.5203C11.745 14.4802 12.5145 15.2508 13.473 15.2643C14.4314 15.2643 15.2009 14.4802 15.2009 13.5337C15.2009 12.5738 14.4314 11.8032 13.473 11.8032C12.5279 11.7896 11.745 12.5738 11.745 13.5203ZM17.9685 13.5337C17.9685 14.4802 18.738 15.2643 19.6964 15.2643C20.6549 15.2643 21.4244 14.4802 21.4244 13.5337C21.4244 12.5738 20.6549 11.8032 19.6964 11.8032C18.738 11.8032 17.9685 12.5738 17.9685 13.5337ZM7.24948 15.2643C6.30448 15.2643 5.52148 14.4802 5.52148 13.5337C5.52148 12.5738 6.29098 11.8032 7.24948 11.8032C8.20798 11.8032 8.97748 12.5738 8.97748 13.5337C8.97748 14.4802 8.20798 15.2508 7.24948 15.2643Z" fill="#1AADB6"/>
</svg>
