<svg width="15" height="14" viewBox="0 0 15 14" fill="none" xmlns="http://www.w3.org/2000/svg">
<path d="M6.09296 11.7077C6.51183 11.7077 6.85141 11.3682 6.85141 10.9493C6.85141 10.5304 6.51183 10.1909 6.09296 10.1909V11.7077ZM0.783253 10.1909C0.364376 10.1909 0.0248092 10.5304 0.0248092 10.9493C0.0248092 11.3682 0.364376 11.7077 0.783253 11.7077V10.1909ZM8.46127 2.02283C8.04238 2.02283 7.70282 2.3624 7.70282 2.78127C7.70282 3.20016 8.04238 3.53972 8.46127 3.53972V2.02283ZM13.771 3.53972C14.1899 3.53972 14.5295 3.20016 14.5295 2.78127C14.5295 2.3624 14.1899 2.02283 13.771 2.02283V3.53972ZM6.09296 10.1909H0.783253V11.7077H6.09296V10.1909ZM8.46127 3.53972H13.771V2.02283H8.46127V3.53972ZM5.4998 2.73567C5.4998 1.2198 4.26337 0 2.7499 0V1.51689C3.43589 1.51689 3.98291 2.06779 3.98291 2.73567H5.4998ZM2.7499 0C1.23643 0 0 1.2198 0 2.73567H1.51689C1.51689 2.06779 2.06391 1.51689 2.7499 1.51689V0ZM0 2.73567C0 4.25153 1.23643 5.47133 2.7499 5.47133V3.95444C2.06391 3.95444 1.51689 3.40354 1.51689 2.73567H0ZM2.7499 5.47133C4.26337 5.47133 5.4998 4.25153 5.4998 2.73567H3.98291C3.98291 3.40354 3.43589 3.95444 2.7499 3.95444V5.47133ZM15.0003 10.9163C15.0003 9.40079 13.7649 8.18065 12.2511 8.18065V9.69754C12.9367 9.69754 13.4834 10.2481 13.4834 10.9163H15.0003ZM12.2511 8.18065C10.7371 8.18065 9.50053 9.40028 9.50053 10.9163H11.0175C11.0175 10.2486 11.5642 9.69754 12.2511 9.69754V8.18065ZM9.50053 10.9163C9.50053 12.4323 10.7371 13.652 12.2511 13.652V12.1351C11.5642 12.1351 11.0175 11.5841 11.0175 10.9163H9.50053ZM12.2511 13.652C13.7649 13.652 15.0003 12.4318 15.0003 10.9163H13.4834C13.4834 11.5846 12.9367 12.1351 12.2511 12.1351V13.652Z" fill="#1AADB6"/>
</svg>
