<svg width="28" height="28" viewBox="0 0 28 28" fill="none" xmlns="http://www.w3.org/2000/svg">
<path d="M23.3904 13.9997C23.3904 17.7444 22.7571 20.018 21.3883 21.3867C20.0196 22.7554 17.746 23.3888 14.0012 23.3888V24.7913C17.8238 24.7913 20.5954 24.163 22.3801 22.3784C24.1647 20.5938 24.793 17.8222 24.793 13.9997H23.3904ZM14.0012 23.3888C10.2564 23.3888 7.98288 22.7554 6.61409 21.3867C5.2453 20.018 4.61201 17.7444 4.61201 13.9997H3.20947C3.20947 17.8222 3.83772 20.5938 5.62231 22.3784C7.40699 24.163 10.1787 24.7913 14.0012 24.7913V23.3888ZM4.61201 13.9997C4.61201 10.255 5.2453 7.98155 6.61409 6.61279C7.98288 5.24404 10.2564 4.61076 14.0012 4.61076V3.20825C10.1787 3.20825 7.40699 3.83648 5.62231 5.62103C3.83772 7.40568 3.20947 10.1773 3.20947 13.9997H4.61201ZM14.0012 4.61076C17.746 4.61076 20.0196 5.24404 21.3883 6.61279C22.7571 7.98155 23.3904 10.255 23.3904 13.9997H24.793C24.793 10.1773 24.1647 7.40568 22.3801 5.62103C20.5954 3.83648 17.8238 3.20825 14.0012 3.20825V4.61076Z" fill="white"/>
<path d="M13.8455 18.2489C13.8455 18.6362 14.1595 18.9502 14.5468 18.9502C14.9341 18.9502 15.248 18.6362 15.248 18.2489H13.8455ZM15.248 14.0001C15.248 13.6128 14.9341 13.2989 14.5468 13.2989C14.1595 13.2989 13.8455 13.6128 13.8455 14.0001H15.248ZM15.248 18.2489V14.0001H13.8455V18.2489H15.248Z" fill="white"/>
<path d="M14.5468 11.4291C14.9341 11.4291 15.248 11.1151 15.248 10.7278C15.248 10.3405 14.9341 10.0266 14.5468 10.0266V11.4291ZM14.537 10.0266C14.1497 10.0266 13.8357 10.3405 13.8357 10.7278C13.8357 11.1151 14.1497 11.4291 14.537 11.4291V10.0266ZM14.5468 10.0266H14.537V11.4291H14.5468V10.0266Z" fill="white"/>
</svg>
