<svg width="27" height="24" viewBox="0 0 27 24" fill="none" xmlns="http://www.w3.org/2000/svg">
<path d="M26.6664 24C25.1864 24 24.3598 23.5067 23.7598 23.1467C23.2665 22.8533 22.9598 22.6667 22.2265 22.6667C21.4798 22.6667 21.1865 22.84 20.6931 23.1467C20.0798 23.5067 19.2665 24 17.7865 24C16.3065 24 15.4798 23.5067 14.8798 23.1467C14.3866 22.8533 14.0799 22.6667 13.3466 22.6667C12.5999 22.6667 12.3066 22.84 11.8132 23.1467C11.1999 23.5067 10.3732 24 8.89324 24C7.41325 24 6.5866 23.5067 5.98661 23.1467C5.49327 22.84 5.18662 22.6667 4.45328 22.6667C3.71996 22.6667 3.4133 22.84 2.91997 23.1467C2.30665 23.5067 1.47998 24 0 24V21.3333C0.746659 21.3333 1.03999 21.16 1.53331 20.8533C2.14665 20.4933 2.9733 20 4.45328 20C5.93327 20 6.75993 20.4933 7.35993 20.8533C7.85325 21.16 8.14659 21.3333 8.89324 21.3333C9.6399 21.3333 9.93323 21.16 10.4266 20.8533C11.0399 20.4933 11.8666 20 13.3466 20C14.8265 20 15.6531 20.4933 16.2531 20.8533C16.7465 21.1467 17.0531 21.3333 17.7865 21.3333C18.5198 21.3333 18.8265 21.16 19.3198 20.8533C19.9198 20.4933 20.7465 20 22.2265 20C23.7065 20 24.5331 20.4933 25.133 20.8533C25.6264 21.16 25.9197 21.3333 26.6664 21.3333V24ZM26.6664 18C25.1864 18 24.3598 17.5067 23.7598 17.1467C23.2665 16.8533 22.9598 16.6667 22.2265 16.6667C21.4798 16.6667 21.1865 16.84 20.6931 17.1467C20.0931 17.5067 19.2665 18 17.7865 18C16.3065 18 15.4798 17.5067 14.8798 17.1467C14.3866 16.8533 14.0799 16.6667 13.3466 16.6667C12.5999 16.6667 12.3066 16.84 11.8132 17.1467C11.2132 17.5067 10.3866 18 8.90658 18C7.42659 18 6.59993 17.5067 5.99994 17.1467C5.50661 16.8533 5.19995 16.6667 4.46662 16.6667C3.73329 16.6667 3.42664 16.84 2.9333 17.1467C2.30665 17.5067 1.47998 18 0 18V15.3333C0.746659 15.3333 1.03999 15.16 1.53331 14.8533C2.13331 14.4934 2.95997 14.0001 4.43995 14.0001C5.91994 14.0001 6.7466 14.4934 7.3466 14.8533C7.83992 15.1467 8.14659 15.3333 8.87991 15.3333C9.62657 15.3333 9.9199 15.16 10.4132 14.8533C11.0132 14.4934 11.8399 14.0001 13.3199 14.0001C14.7998 14.0001 15.6265 14.4934 16.2265 14.8533C16.7198 15.1467 17.0265 15.3333 17.7598 15.3333C18.4931 15.3333 18.7998 15.16 19.2931 14.8533C19.8931 14.4934 20.7198 14.0001 22.1998 14.0001C23.6798 14.0001 24.5065 14.4934 25.1064 14.8533C25.5997 15.1467 25.9064 15.3333 26.6397 15.3333V18H26.6664ZM8.89324 12.0001C9.6399 12.0001 9.93323 11.8268 10.4266 11.5201C11.0399 11.1601 11.8666 10.6668 13.3466 10.6668C14.8265 10.6668 15.6531 11.1601 16.2531 11.5201C16.7465 11.8134 17.0531 12.0001 17.7865 12.0001C18.5198 12.0001 18.8265 11.8268 19.3198 11.5201C19.4798 11.4268 19.6665 11.3201 19.8665 11.2134L11.3066 2.66685C9.23991 0.600206 7.33326 -0.0131215 3.99996 0.00021178V3.33352C6.4266 3.32018 7.85325 3.85351 9.33324 5.3335L10.6666 6.66681L6.33327 11.0001C6.7466 11.1601 7.07993 11.3601 7.35993 11.5201C7.85325 11.8268 8.14659 12.0001 8.89324 12.0001ZM19.3331 6.66681C21.1741 6.66681 22.6665 5.17444 22.6665 3.33352C22.6665 1.49258 21.1741 0.000211715 19.3331 0.000211715C17.4922 0.000211715 15.9998 1.49258 15.9998 3.33352C15.9998 5.17444 17.4922 6.66681 19.3331 6.66681ZM10.6666 6.66681L6.33327 11.0001C6.7466 11.1601 7.07993 11.3601 7.35993 11.5201C7.85325 11.8268 8.14659 12.0001 8.89324 12.0001C9.6399 12.0001 9.93323 11.8268 10.4266 11.5201C11.0399 11.1601 11.8666 10.6668 13.3466 10.6668C14.8265 10.6668 15.6531 11.1601 16.2531 11.5201C16.7465 11.8134 17.0531 12.0001 17.7865 12.0001C18.5198 12.0001 18.8265 11.8268 19.3198 11.5201C19.4798 11.4268 19.6665 11.3201 19.8665 11.2134L11.3066 2.66685C9.23991 0.600206 7.33326 -0.0131215 3.99996 0.00021178V3.33352C6.4266 3.32018 7.85325 3.85351 9.33324 5.3335L10.6666 6.66681ZM4.46662 16.6667C5.19995 16.6667 5.50661 16.8533 5.99994 17.1467C6.59993 17.5067 7.42659 18 8.90658 18C10.3866 18 11.2132 17.5067 11.8132 17.1467C12.3066 16.84 12.5999 16.6667 13.3466 16.6667C14.0799 16.6667 14.3866 16.8533 14.8798 17.1467C15.4798 17.5067 16.3065 18 17.7865 18C19.2665 18 20.0931 17.5067 20.6931 17.1467C21.1865 16.84 21.4798 16.6667 22.2265 16.6667C22.9598 16.6667 23.2665 16.8533 23.7598 17.1467C24.3598 17.5067 25.173 17.9867 26.6397 18V15.3333C25.9064 15.3333 25.5997 15.1467 25.1064 14.8533C24.5065 14.4934 23.6798 14.0001 22.1998 14.0001C20.7198 14.0001 19.8931 14.4934 19.2931 14.8533C18.7998 15.16 18.4931 15.3333 17.7598 15.3333C17.0265 15.3333 16.7198 15.1467 16.2265 14.8533C15.6265 14.4934 14.7998 14.0001 13.3199 14.0001C11.8399 14.0001 11.0132 14.4934 10.4132 14.8533C9.9199 15.16 9.62657 15.3333 8.87991 15.3333C8.14659 15.3333 7.83992 15.1467 7.3466 14.8533C6.7466 14.4934 5.91994 14.0001 4.43995 14.0001C2.95997 14.0001 2.13331 14.4934 1.53331 14.8533C1.03999 15.16 0.746659 15.3333 0 15.3333V18C1.47998 18 2.30665 17.5067 2.9333 17.1467C3.42664 16.84 3.73329 16.6667 4.46662 16.6667ZM22.2265 20C20.7465 20 19.9198 20.4933 19.3198 20.8533C18.8265 21.16 18.5198 21.3333 17.7865 21.3333C17.0531 21.3333 16.7465 21.1467 16.2531 20.8533C15.6531 20.4933 14.8265 20 13.3466 20C11.8666 20 11.0399 20.4933 10.4266 20.8533C9.93323 21.16 9.6399 21.3333 8.89324 21.3333C8.14659 21.3333 7.85325 21.16 7.35993 20.8533C6.75993 20.4933 5.93327 20 4.45328 20C2.9733 20 2.14665 20.4933 1.53331 20.8533C1.03999 21.16 0.746659 21.3333 0 21.3333V24C1.47998 24 2.30665 23.5067 2.91997 23.1467C3.4133 22.84 3.71996 22.6667 4.45328 22.6667C5.18662 22.6667 5.49327 22.84 5.98661 23.1467C6.5866 23.5067 7.41325 24 8.89324 24C10.3732 24 11.1999 23.5067 11.8132 23.1467C12.3066 22.84 12.5999 22.6667 13.3466 22.6667C14.0799 22.6667 14.3866 22.8533 14.8798 23.1467C15.4798 23.5067 16.3065 24 17.7865 24C19.2665 24 20.0798 23.5067 20.6931 23.1467C21.1865 22.84 21.4798 22.6667 22.2265 22.6667C22.9598 22.6667 23.2665 22.8533 23.7598 23.1467C24.3598 23.5067 25.1864 24 26.6664 24V21.3333C25.9197 21.3333 25.6264 21.16 25.133 20.8533C24.5331 20.4933 23.7065 20 22.2265 20ZM19.3331 6.66681C21.1741 6.66681 22.6665 5.17444 22.6665 3.33352C22.6665 1.49258 21.1741 0.000211715 19.3331 0.000211715C17.4922 0.000211715 15.9998 1.49258 15.9998 3.33352C15.9998 5.17444 17.4922 6.66681 19.3331 6.66681Z" fill="#1AADB6"/>
<path d="M26.6664 24C25.1864 24 24.3598 23.5067 23.7598 23.1467C23.2665 22.8533 22.9598 22.6667 22.2265 22.6667C21.4798 22.6667 21.1865 22.84 20.6931 23.1467C20.0798 23.5067 19.2665 24 17.7865 24C16.3065 24 15.4798 23.5067 14.8798 23.1467C14.3866 22.8533 14.0799 22.6667 13.3466 22.6667C12.5999 22.6667 12.3066 22.84 11.8132 23.1467C11.1999 23.5067 10.3732 24 8.89324 24C7.41325 24 6.5866 23.5067 5.98661 23.1467C5.49327 22.84 5.18662 22.6667 4.45328 22.6667C3.71996 22.6667 3.4133 22.84 2.91997 23.1467C2.30665 23.5067 1.47998 24 0 24V21.3333C0.746659 21.3333 1.03999 21.16 1.53331 20.8533C2.14665 20.4933 2.9733 20 4.45328 20C5.93327 20 6.75993 20.4933 7.35993 20.8533C7.85325 21.16 8.14659 21.3333 8.89324 21.3333C9.6399 21.3333 9.93323 21.16 10.4266 20.8533C11.0399 20.4933 11.8666 20 13.3466 20C14.8265 20 15.6531 20.4933 16.2531 20.8533C16.7465 21.1467 17.0531 21.3333 17.7865 21.3333C18.5198 21.3333 18.8265 21.16 19.3198 20.8533C19.9198 20.4933 20.7465 20 22.2265 20C23.7065 20 24.5331 20.4933 25.133 20.8533C25.6264 21.16 25.9197 21.3333 26.6664 21.3333V24ZM26.6664 18C25.1864 18 24.3598 17.5067 23.7598 17.1467C23.2665 16.8533 22.9598 16.6667 22.2265 16.6667C21.4798 16.6667 21.1865 16.84 20.6931 17.1467C20.0931 17.5067 19.2665 18 17.7865 18C16.3065 18 15.4798 17.5067 14.8798 17.1467C14.3866 16.8533 14.0799 16.6667 13.3466 16.6667C12.5999 16.6667 12.3066 16.84 11.8132 17.1467C11.2132 17.5067 10.3866 18 8.90658 18C7.42659 18 6.59993 17.5067 5.99994 17.1467C5.50661 16.8533 5.19995 16.6667 4.46662 16.6667C3.73329 16.6667 3.42664 16.84 2.9333 17.1467C2.30665 17.5067 1.47998 18 0 18V15.3333C0.746659 15.3333 1.03999 15.16 1.53331 14.8533C2.13331 14.4934 2.95997 14.0001 4.43995 14.0001C5.91994 14.0001 6.7466 14.4934 7.3466 14.8533C7.83992 15.1467 8.14659 15.3333 8.87991 15.3333C9.62657 15.3333 9.9199 15.16 10.4132 14.8533C11.0132 14.4934 11.8399 14.0001 13.3199 14.0001C14.7998 14.0001 15.6265 14.4934 16.2265 14.8533C16.7198 15.1467 17.0265 15.3333 17.7598 15.3333C18.4931 15.3333 18.7998 15.16 19.2931 14.8533C19.8931 14.4934 20.7198 14.0001 22.1998 14.0001C23.6798 14.0001 24.5065 14.4934 25.1064 14.8533C25.5997 15.1467 25.9064 15.3333 26.6397 15.3333V18H26.6664ZM8.89324 12.0001C9.6399 12.0001 9.93323 11.8268 10.4266 11.5201C11.0399 11.1601 11.8666 10.6668 13.3466 10.6668C14.8265 10.6668 15.6531 11.1601 16.2531 11.5201C16.7465 11.8134 17.0531 12.0001 17.7865 12.0001C18.5198 12.0001 18.8265 11.8268 19.3198 11.5201C19.4798 11.4268 19.6665 11.3201 19.8665 11.2134L11.3066 2.66685C9.23991 0.600206 7.33326 -0.0131215 3.99996 0.00021178V3.33352C6.4266 3.32018 7.85325 3.85351 9.33324 5.3335L10.6666 6.66681L6.33327 11.0001C6.7466 11.1601 7.07993 11.3601 7.35993 11.5201C7.85325 11.8268 8.14659 12.0001 8.89324 12.0001ZM19.3331 6.66681C21.1741 6.66681 22.6665 5.17444 22.6665 3.33352C22.6665 1.49258 21.1741 0.000211715 19.3331 0.000211715C17.4922 0.000211715 15.9998 1.49258 15.9998 3.33352C15.9998 5.17444 17.4922 6.66681 19.3331 6.66681ZM10.6666 6.66681L6.33327 11.0001C6.7466 11.1601 7.07993 11.3601 7.35993 11.5201C7.85325 11.8268 8.14659 12.0001 8.89324 12.0001C9.6399 12.0001 9.93323 11.8268 10.4266 11.5201C11.0399 11.1601 11.8666 10.6668 13.3466 10.6668C14.8265 10.6668 15.6531 11.1601 16.2531 11.5201C16.7465 11.8134 17.0531 12.0001 17.7865 12.0001C18.5198 12.0001 18.8265 11.8268 19.3198 11.5201C19.4798 11.4268 19.6665 11.3201 19.8665 11.2134L11.3066 2.66685C9.23991 0.600206 7.33326 -0.0131215 3.99996 0.00021178V3.33352C6.4266 3.32018 7.85325 3.85351 9.33324 5.3335L10.6666 6.66681ZM4.46662 16.6667C5.19995 16.6667 5.50661 16.8533 5.99994 17.1467C6.59993 17.5067 7.42659 18 8.90658 18C10.3866 18 11.2132 17.5067 11.8132 17.1467C12.3066 16.84 12.5999 16.6667 13.3466 16.6667C14.0799 16.6667 14.3866 16.8533 14.8798 17.1467C15.4798 17.5067 16.3065 18 17.7865 18C19.2665 18 20.0931 17.5067 20.6931 17.1467C21.1865 16.84 21.4798 16.6667 22.2265 16.6667C22.9598 16.6667 23.2665 16.8533 23.7598 17.1467C24.3598 17.5067 25.173 17.9867 26.6397 18V15.3333C25.9064 15.3333 25.5997 15.1467 25.1064 14.8533C24.5065 14.4934 23.6798 14.0001 22.1998 14.0001C20.7198 14.0001 19.8931 14.4934 19.2931 14.8533C18.7998 15.16 18.4931 15.3333 17.7598 15.3333C17.0265 15.3333 16.7198 15.1467 16.2265 14.8533C15.6265 14.4934 14.7998 14.0001 13.3199 14.0001C11.8399 14.0001 11.0132 14.4934 10.4132 14.8533C9.9199 15.16 9.62657 15.3333 8.87991 15.3333C8.14659 15.3333 7.83992 15.1467 7.3466 14.8533C6.7466 14.4934 5.91994 14.0001 4.43995 14.0001C2.95997 14.0001 2.13331 14.4934 1.53331 14.8533C1.03999 15.16 0.746659 15.3333 0 15.3333V18C1.47998 18 2.30665 17.5067 2.9333 17.1467C3.42664 16.84 3.73329 16.6667 4.46662 16.6667ZM22.2265 20C20.7465 20 19.9198 20.4933 19.3198 20.8533C18.8265 21.16 18.5198 21.3333 17.7865 21.3333C17.0531 21.3333 16.7465 21.1467 16.2531 20.8533C15.6531 20.4933 14.8265 20 13.3466 20C11.8666 20 11.0399 20.4933 10.4266 20.8533C9.93323 21.16 9.6399 21.3333 8.89324 21.3333C8.14659 21.3333 7.85325 21.16 7.35993 20.8533C6.75993 20.4933 5.93327 20 4.45328 20C2.9733 20 2.14665 20.4933 1.53331 20.8533C1.03999 21.16 0.746659 21.3333 0 21.3333V24C1.47998 24 2.30665 23.5067 2.91997 23.1467C3.4133 22.84 3.71996 22.6667 4.45328 22.6667C5.18662 22.6667 5.49327 22.84 5.98661 23.1467C6.5866 23.5067 7.41325 24 8.89324 24C10.3732 24 11.1999 23.5067 11.8132 23.1467C12.3066 22.84 12.5999 22.6667 13.3466 22.6667C14.0799 22.6667 14.3866 22.8533 14.8798 23.1467C15.4798 23.5067 16.3065 24 17.7865 24C19.2665 24 20.0798 23.5067 20.6931 23.1467C21.1865 22.84 21.4798 22.6667 22.2265 22.6667C22.9598 22.6667 23.2665 22.8533 23.7598 23.1467C24.3598 23.5067 25.1864 24 26.6664 24V21.3333C25.9197 21.3333 25.6264 21.16 25.133 20.8533C24.5331 20.4933 23.7065 20 22.2265 20ZM19.3331 6.66681C21.1741 6.66681 22.6665 5.17444 22.6665 3.33352C22.6665 1.49258 21.1741 0.000211715 19.3331 0.000211715C17.4922 0.000211715 15.9998 1.49258 15.9998 3.33352C15.9998 5.17444 17.4922 6.66681 19.3331 6.66681Z" fill="#1AADB6"/>
<path d="M26.6664 24C25.1864 24 24.3598 23.5067 23.7598 23.1467C23.2665 22.8533 22.9598 22.6667 22.2265 22.6667C21.4798 22.6667 21.1865 22.84 20.6931 23.1467C20.0798 23.5067 19.2665 24 17.7865 24C16.3065 24 15.4798 23.5067 14.8798 23.1467C14.3866 22.8533 14.0799 22.6667 13.3466 22.6667C12.5999 22.6667 12.3066 22.84 11.8132 23.1467C11.1999 23.5067 10.3732 24 8.89324 24C7.41325 24 6.5866 23.5067 5.98661 23.1467C5.49327 22.84 5.18662 22.6667 4.45328 22.6667C3.71996 22.6667 3.4133 22.84 2.91997 23.1467C2.30665 23.5067 1.47998 24 0 24V21.3333C0.746659 21.3333 1.03999 21.16 1.53331 20.8533C2.14665 20.4933 2.9733 20 4.45328 20C5.93327 20 6.75993 20.4933 7.35993 20.8533C7.85325 21.16 8.14659 21.3333 8.89324 21.3333C9.6399 21.3333 9.93323 21.16 10.4266 20.8533C11.0399 20.4933 11.8666 20 13.3466 20C14.8265 20 15.6531 20.4933 16.2531 20.8533C16.7465 21.1467 17.0531 21.3333 17.7865 21.3333C18.5198 21.3333 18.8265 21.16 19.3198 20.8533C19.9198 20.4933 20.7465 20 22.2265 20C23.7065 20 24.5331 20.4933 25.133 20.8533C25.6264 21.16 25.9197 21.3333 26.6664 21.3333V24ZM26.6664 18C25.1864 18 24.3598 17.5067 23.7598 17.1467C23.2665 16.8533 22.9598 16.6667 22.2265 16.6667C21.4798 16.6667 21.1865 16.84 20.6931 17.1467C20.0931 17.5067 19.2665 18 17.7865 18C16.3065 18 15.4798 17.5067 14.8798 17.1467C14.3866 16.8533 14.0799 16.6667 13.3466 16.6667C12.5999 16.6667 12.3066 16.84 11.8132 17.1467C11.2132 17.5067 10.3866 18 8.90658 18C7.42659 18 6.59993 17.5067 5.99994 17.1467C5.50661 16.8533 5.19995 16.6667 4.46662 16.6667C3.73329 16.6667 3.42664 16.84 2.9333 17.1467C2.30665 17.5067 1.47998 18 0 18V15.3333C0.746659 15.3333 1.03999 15.16 1.53331 14.8533C2.13331 14.4934 2.95997 14.0001 4.43995 14.0001C5.91994 14.0001 6.7466 14.4934 7.3466 14.8533C7.83992 15.1467 8.14659 15.3333 8.87991 15.3333C9.62657 15.3333 9.9199 15.16 10.4132 14.8533C11.0132 14.4934 11.8399 14.0001 13.3199 14.0001C14.7998 14.0001 15.6265 14.4934 16.2265 14.8533C16.7198 15.1467 17.0265 15.3333 17.7598 15.3333C18.4931 15.3333 18.7998 15.16 19.2931 14.8533C19.8931 14.4934 20.7198 14.0001 22.1998 14.0001C23.6798 14.0001 24.5065 14.4934 25.1064 14.8533C25.5997 15.1467 25.9064 15.3333 26.6397 15.3333V18H26.6664ZM8.89324 12.0001C9.6399 12.0001 9.93323 11.8268 10.4266 11.5201C11.0399 11.1601 11.8666 10.6668 13.3466 10.6668C14.8265 10.6668 15.6531 11.1601 16.2531 11.5201C16.7465 11.8134 17.0531 12.0001 17.7865 12.0001C18.5198 12.0001 18.8265 11.8268 19.3198 11.5201C19.4798 11.4268 19.6665 11.3201 19.8665 11.2134L11.3066 2.66685C9.23991 0.600206 7.33326 -0.0131215 3.99996 0.00021178V3.33352C6.4266 3.32018 7.85325 3.85351 9.33324 5.3335L10.6666 6.66681L6.33327 11.0001C6.7466 11.1601 7.07993 11.3601 7.35993 11.5201C7.85325 11.8268 8.14659 12.0001 8.89324 12.0001ZM19.3331 6.66681C21.1741 6.66681 22.6665 5.17444 22.6665 3.33352C22.6665 1.49258 21.1741 0.000211715 19.3331 0.000211715C17.4922 0.000211715 15.9998 1.49258 15.9998 3.33352C15.9998 5.17444 17.4922 6.66681 19.3331 6.66681ZM10.6666 6.66681L6.33327 11.0001C6.7466 11.1601 7.07993 11.3601 7.35993 11.5201C7.85325 11.8268 8.14659 12.0001 8.89324 12.0001C9.6399 12.0001 9.93323 11.8268 10.4266 11.5201C11.0399 11.1601 11.8666 10.6668 13.3466 10.6668C14.8265 10.6668 15.6531 11.1601 16.2531 11.5201C16.7465 11.8134 17.0531 12.0001 17.7865 12.0001C18.5198 12.0001 18.8265 11.8268 19.3198 11.5201C19.4798 11.4268 19.6665 11.3201 19.8665 11.2134L11.3066 2.66685C9.23991 0.600206 7.33326 -0.0131215 3.99996 0.00021178V3.33352C6.4266 3.32018 7.85325 3.85351 9.33324 5.3335L10.6666 6.66681ZM4.46662 16.6667C5.19995 16.6667 5.50661 16.8533 5.99994 17.1467C6.59993 17.5067 7.42659 18 8.90658 18C10.3866 18 11.2132 17.5067 11.8132 17.1467C12.3066 16.84 12.5999 16.6667 13.3466 16.6667C14.0799 16.6667 14.3866 16.8533 14.8798 17.1467C15.4798 17.5067 16.3065 18 17.7865 18C19.2665 18 20.0931 17.5067 20.6931 17.1467C21.1865 16.84 21.4798 16.6667 22.2265 16.6667C22.9598 16.6667 23.2665 16.8533 23.7598 17.1467C24.3598 17.5067 25.173 17.9867 26.6397 18V15.3333C25.9064 15.3333 25.5997 15.1467 25.1064 14.8533C24.5065 14.4934 23.6798 14.0001 22.1998 14.0001C20.7198 14.0001 19.8931 14.4934 19.2931 14.8533C18.7998 15.16 18.4931 15.3333 17.7598 15.3333C17.0265 15.3333 16.7198 15.1467 16.2265 14.8533C15.6265 14.4934 14.7998 14.0001 13.3199 14.0001C11.8399 14.0001 11.0132 14.4934 10.4132 14.8533C9.9199 15.16 9.62657 15.3333 8.87991 15.3333C8.14659 15.3333 7.83992 15.1467 7.3466 14.8533C6.7466 14.4934 5.91994 14.0001 4.43995 14.0001C2.95997 14.0001 2.13331 14.4934 1.53331 14.8533C1.03999 15.16 0.746659 15.3333 0 15.3333V18C1.47998 18 2.30665 17.5067 2.9333 17.1467C3.42664 16.84 3.73329 16.6667 4.46662 16.6667ZM22.2265 20C20.7465 20 19.9198 20.4933 19.3198 20.8533C18.8265 21.16 18.5198 21.3333 17.7865 21.3333C17.0531 21.3333 16.7465 21.1467 16.2531 20.8533C15.6531 20.4933 14.8265 20 13.3466 20C11.8666 20 11.0399 20.4933 10.4266 20.8533C9.93323 21.16 9.6399 21.3333 8.89324 21.3333C8.14659 21.3333 7.85325 21.16 7.35993 20.8533C6.75993 20.4933 5.93327 20 4.45328 20C2.9733 20 2.14665 20.4933 1.53331 20.8533C1.03999 21.16 0.746659 21.3333 0 21.3333V24C1.47998 24 2.30665 23.5067 2.91997 23.1467C3.4133 22.84 3.71996 22.6667 4.45328 22.6667C5.18662 22.6667 5.49327 22.84 5.98661 23.1467C6.5866 23.5067 7.41325 24 8.89324 24C10.3732 24 11.1999 23.5067 11.8132 23.1467C12.3066 22.84 12.5999 22.6667 13.3466 22.6667C14.0799 22.6667 14.3866 22.8533 14.8798 23.1467C15.4798 23.5067 16.3065 24 17.7865 24C19.2665 24 20.0798 23.5067 20.6931 23.1467C21.1865 22.84 21.4798 22.6667 22.2265 22.6667C22.9598 22.6667 23.2665 22.8533 23.7598 23.1467C24.3598 23.5067 25.1864 24 26.6664 24V21.3333C25.9197 21.3333 25.6264 21.16 25.133 20.8533C24.5331 20.4933 23.7065 20 22.2265 20ZM19.3331 6.66681C21.1741 6.66681 22.6665 5.17444 22.6665 3.33352C22.6665 1.49258 21.1741 0.000211715 19.3331 0.000211715C17.4922 0.000211715 15.9998 1.49258 15.9998 3.33352C15.9998 5.17444 17.4922 6.66681 19.3331 6.66681Z" fill="#1AADB6"/>
<path d="M26.6664 24C25.1864 24 24.3598 23.5067 23.7598 23.1467C23.2665 22.8533 22.9598 22.6667 22.2265 22.6667C21.4798 22.6667 21.1865 22.84 20.6931 23.1467C20.0798 23.5067 19.2665 24 17.7865 24C16.3065 24 15.4798 23.5067 14.8798 23.1467C14.3866 22.8533 14.0799 22.6667 13.3466 22.6667C12.5999 22.6667 12.3066 22.84 11.8132 23.1467C11.1999 23.5067 10.3732 24 8.89324 24C7.41325 24 6.5866 23.5067 5.98661 23.1467C5.49327 22.84 5.18662 22.6667 4.45328 22.6667C3.71996 22.6667 3.4133 22.84 2.91997 23.1467C2.30665 23.5067 1.47998 24 0 24V21.3333C0.746659 21.3333 1.03999 21.16 1.53331 20.8533C2.14665 20.4933 2.9733 20 4.45328 20C5.93327 20 6.75993 20.4933 7.35993 20.8533C7.85325 21.16 8.14659 21.3333 8.89324 21.3333C9.6399 21.3333 9.93323 21.16 10.4266 20.8533C11.0399 20.4933 11.8666 20 13.3466 20C14.8265 20 15.6531 20.4933 16.2531 20.8533C16.7465 21.1467 17.0531 21.3333 17.7865 21.3333C18.5198 21.3333 18.8265 21.16 19.3198 20.8533C19.9198 20.4933 20.7465 20 22.2265 20C23.7065 20 24.5331 20.4933 25.133 20.8533C25.6264 21.16 25.9197 21.3333 26.6664 21.3333V24ZM26.6664 18C25.1864 18 24.3598 17.5067 23.7598 17.1467C23.2665 16.8533 22.9598 16.6667 22.2265 16.6667C21.4798 16.6667 21.1865 16.84 20.6931 17.1467C20.0931 17.5067 19.2665 18 17.7865 18C16.3065 18 15.4798 17.5067 14.8798 17.1467C14.3866 16.8533 14.0799 16.6667 13.3466 16.6667C12.5999 16.6667 12.3066 16.84 11.8132 17.1467C11.2132 17.5067 10.3866 18 8.90658 18C7.42659 18 6.59993 17.5067 5.99994 17.1467C5.50661 16.8533 5.19995 16.6667 4.46662 16.6667C3.73329 16.6667 3.42664 16.84 2.9333 17.1467C2.30665 17.5067 1.47998 18 0 18V15.3333C0.746659 15.3333 1.03999 15.16 1.53331 14.8533C2.13331 14.4934 2.95997 14.0001 4.43995 14.0001C5.91994 14.0001 6.7466 14.4934 7.3466 14.8533C7.83992 15.1467 8.14659 15.3333 8.87991 15.3333C9.62657 15.3333 9.9199 15.16 10.4132 14.8533C11.0132 14.4934 11.8399 14.0001 13.3199 14.0001C14.7998 14.0001 15.6265 14.4934 16.2265 14.8533C16.7198 15.1467 17.0265 15.3333 17.7598 15.3333C18.4931 15.3333 18.7998 15.16 19.2931 14.8533C19.8931 14.4934 20.7198 14.0001 22.1998 14.0001C23.6798 14.0001 24.5065 14.4934 25.1064 14.8533C25.5997 15.1467 25.9064 15.3333 26.6397 15.3333V18H26.6664ZM8.89324 12.0001C9.6399 12.0001 9.93323 11.8268 10.4266 11.5201C11.0399 11.1601 11.8666 10.6668 13.3466 10.6668C14.8265 10.6668 15.6531 11.1601 16.2531 11.5201C16.7465 11.8134 17.0531 12.0001 17.7865 12.0001C18.5198 12.0001 18.8265 11.8268 19.3198 11.5201C19.4798 11.4268 19.6665 11.3201 19.8665 11.2134L11.3066 2.66685C9.23991 0.600206 7.33326 -0.0131215 3.99996 0.00021178V3.33352C6.4266 3.32018 7.85325 3.85351 9.33324 5.3335L10.6666 6.66681L6.33327 11.0001C6.7466 11.1601 7.07993 11.3601 7.35993 11.5201C7.85325 11.8268 8.14659 12.0001 8.89324 12.0001ZM19.3331 6.66681C21.1741 6.66681 22.6665 5.17444 22.6665 3.33352C22.6665 1.49258 21.1741 0.000211715 19.3331 0.000211715C17.4922 0.000211715 15.9998 1.49258 15.9998 3.33352C15.9998 5.17444 17.4922 6.66681 19.3331 6.66681ZM10.6666 6.66681L6.33327 11.0001C6.7466 11.1601 7.07993 11.3601 7.35993 11.5201C7.85325 11.8268 8.14659 12.0001 8.89324 12.0001C9.6399 12.0001 9.93323 11.8268 10.4266 11.5201C11.0399 11.1601 11.8666 10.6668 13.3466 10.6668C14.8265 10.6668 15.6531 11.1601 16.2531 11.5201C16.7465 11.8134 17.0531 12.0001 17.7865 12.0001C18.5198 12.0001 18.8265 11.8268 19.3198 11.5201C19.4798 11.4268 19.6665 11.3201 19.8665 11.2134L11.3066 2.66685C9.23991 0.600206 7.33326 -0.0131215 3.99996 0.00021178V3.33352C6.4266 3.32018 7.85325 3.85351 9.33324 5.3335L10.6666 6.66681ZM4.46662 16.6667C5.19995 16.6667 5.50661 16.8533 5.99994 17.1467C6.59993 17.5067 7.42659 18 8.90658 18C10.3866 18 11.2132 17.5067 11.8132 17.1467C12.3066 16.84 12.5999 16.6667 13.3466 16.6667C14.0799 16.6667 14.3866 16.8533 14.8798 17.1467C15.4798 17.5067 16.3065 18 17.7865 18C19.2665 18 20.0931 17.5067 20.6931 17.1467C21.1865 16.84 21.4798 16.6667 22.2265 16.6667C22.9598 16.6667 23.2665 16.8533 23.7598 17.1467C24.3598 17.5067 25.173 17.9867 26.6397 18V15.3333C25.9064 15.3333 25.5997 15.1467 25.1064 14.8533C24.5065 14.4934 23.6798 14.0001 22.1998 14.0001C20.7198 14.0001 19.8931 14.4934 19.2931 14.8533C18.7998 15.16 18.4931 15.3333 17.7598 15.3333C17.0265 15.3333 16.7198 15.1467 16.2265 14.8533C15.6265 14.4934 14.7998 14.0001 13.3199 14.0001C11.8399 14.0001 11.0132 14.4934 10.4132 14.8533C9.9199 15.16 9.62657 15.3333 8.87991 15.3333C8.14659 15.3333 7.83992 15.1467 7.3466 14.8533C6.7466 14.4934 5.91994 14.0001 4.43995 14.0001C2.95997 14.0001 2.13331 14.4934 1.53331 14.8533C1.03999 15.16 0.746659 15.3333 0 15.3333V18C1.47998 18 2.30665 17.5067 2.9333 17.1467C3.42664 16.84 3.73329 16.6667 4.46662 16.6667ZM22.2265 20C20.7465 20 19.9198 20.4933 19.3198 20.8533C18.8265 21.16 18.5198 21.3333 17.7865 21.3333C17.0531 21.3333 16.7465 21.1467 16.2531 20.8533C15.6531 20.4933 14.8265 20 13.3466 20C11.8666 20 11.0399 20.4933 10.4266 20.8533C9.93323 21.16 9.6399 21.3333 8.89324 21.3333C8.14659 21.3333 7.85325 21.16 7.35993 20.8533C6.75993 20.4933 5.93327 20 4.45328 20C2.9733 20 2.14665 20.4933 1.53331 20.8533C1.03999 21.16 0.746659 21.3333 0 21.3333V24C1.47998 24 2.30665 23.5067 2.91997 23.1467C3.4133 22.84 3.71996 22.6667 4.45328 22.6667C5.18662 22.6667 5.49327 22.84 5.98661 23.1467C6.5866 23.5067 7.41325 24 8.89324 24C10.3732 24 11.1999 23.5067 11.8132 23.1467C12.3066 22.84 12.5999 22.6667 13.3466 22.6667C14.0799 22.6667 14.3866 22.8533 14.8798 23.1467C15.4798 23.5067 16.3065 24 17.7865 24C19.2665 24 20.0798 23.5067 20.6931 23.1467C21.1865 22.84 21.4798 22.6667 22.2265 22.6667C22.9598 22.6667 23.2665 22.8533 23.7598 23.1467C24.3598 23.5067 25.1864 24 26.6664 24V21.3333C25.9197 21.3333 25.6264 21.16 25.133 20.8533C24.5331 20.4933 23.7065 20 22.2265 20ZM19.3331 6.66681C21.1741 6.66681 22.6665 5.17444 22.6665 3.33352C22.6665 1.49258 21.1741 0.000211715 19.3331 0.000211715C17.4922 0.000211715 15.9998 1.49258 15.9998 3.33352C15.9998 5.17444 17.4922 6.66681 19.3331 6.66681Z" fill="#1AADB6"/>
</svg>
