<svg width="28" height="28" viewBox="0 0 28 28" fill="none" xmlns="http://www.w3.org/2000/svg">
<path d="M8.95593 14.5415C8.64948 14.5415 8.40105 14.9192 8.40105 15.3852C8.40105 15.8511 8.64948 16.2288 8.95593 16.2288V14.5415ZM21.9031 16.2288C22.2096 16.2288 22.458 15.8511 22.458 15.3852C22.458 14.9192 22.2096 14.5415 21.9031 14.5415V16.2288ZM8.95593 16.2288L21.9031 16.2288V14.5415L8.95593 14.5415V16.2288Z" fill="white"/>
<path d="M13.786 24.5454C14.0032 24.8742 14.3545 24.8731 14.5707 24.5429C14.787 24.2126 14.7862 23.6786 14.5691 23.3497L13.786 24.5454ZM8.95551 16.0419L8.56396 15.4441C8.45939 15.6024 8.40062 15.8176 8.40063 16.0419C8.40063 16.2663 8.45942 16.4814 8.56399 16.6398L8.95551 16.0419ZM14.5691 8.73272C14.7862 8.40393 14.787 7.86975 14.5707 7.5396C14.3545 7.20945 14.0031 7.20834 13.786 7.53713L14.5691 8.73272ZM14.5691 23.3497L9.34701 15.4441L8.56399 16.6398L13.786 24.5454L14.5691 23.3497ZM9.34705 16.6397L14.5691 8.73272L13.786 7.53713L8.56396 15.4441L9.34705 16.6397Z" fill="white"/>
</svg>
