<svg width="20" height="20" viewBox="0 0 20 20" fill="none" xmlns="http://www.w3.org/2000/svg">
<path d="M15.0003 10.8333H10.8337V14.9999C10.8337 15.4583 10.4587 15.8333 10.0003 15.8333C9.54199 15.8333 9.16699 15.4583 9.16699 14.9999V10.8333H5.00033C4.54199 10.8333 4.16699 10.4583 4.16699 9.99996C4.16699 9.54163 4.54199 9.16663 5.00033 9.16663H9.16699V4.99996C9.16699 4.54163 9.54199 4.16663 10.0003 4.16663C10.4587 4.16663 10.8337 4.54163 10.8337 4.99996V9.16663H15.0003C15.4587 9.16663 15.8337 9.54163 15.8337 9.99996C15.8337 10.4583 15.4587 10.8333 15.0003 10.8333Z" fill="white"/>
</svg>
