<svg width="28" height="28" viewBox="0 0 28 28" fill="none" xmlns="http://www.w3.org/2000/svg">
<path d="M21.8834 6.7585L22.3734 6.26244L22.373 6.26203L21.8834 6.7585ZM6.08289 6.7585L6.57252 7.25497L6.57292 7.25456L6.08289 6.7585ZM13.9826 25.2062C15.4179 25.2062 17.6399 24.5037 19.5059 22.8968C21.4012 21.2645 22.9388 18.6909 22.9388 14.9727H21.5539C21.5539 18.2499 20.2172 20.4419 18.6094 21.8265C16.9722 23.2364 15.0623 23.802 13.9826 23.802V25.2062ZM22.9388 14.9727C22.9388 13.2295 22.9575 11.8882 22.9752 10.8452C22.9927 9.80831 23.0098 9.04885 23.0057 8.48988C23.0018 7.94206 22.9786 7.51404 22.89 7.16645C22.7887 6.76943 22.61 6.50275 22.3734 6.26244L21.3934 7.25456C21.488 7.35064 21.5203 7.40464 21.5492 7.51801C21.5907 7.6808 21.6169 7.95286 21.6209 8.50022C21.6247 9.03641 21.6084 9.76722 21.5905 10.8211C21.5728 11.8688 21.5539 13.2188 21.5539 14.9727H22.9388ZM22.373 6.26203C21.9537 5.83687 20.8342 5.08268 19.3783 4.43898C17.9029 3.78664 15.997 3.20911 13.9826 3.20911V4.61332C15.7479 4.61332 17.4606 5.12305 18.8248 5.72616C20.2085 6.33791 21.1495 7.00736 21.3937 7.25497L22.373 6.26203ZM13.9826 3.20911C11.9682 3.20911 10.0624 3.78664 8.587 4.43899C7.13133 5.08263 6.01184 5.83691 5.59286 6.26244L6.57292 7.25456C6.81637 7.00731 7.75691 6.33795 9.14057 5.72615C10.5045 5.12305 12.2173 4.61332 13.9826 4.61332V3.20911ZM5.59326 6.26203C5.35637 6.50222 5.17731 6.7689 5.07579 7.16607C4.9869 7.5138 4.96365 7.94194 4.95961 8.4898C4.95549 9.04882 4.97249 9.80829 4.99005 10.8452C5.00772 11.8882 5.02637 13.2295 5.02637 14.9727H6.41126C6.41126 13.2188 6.39248 11.8688 6.37474 10.8211C6.35689 9.76724 6.3405 9.03646 6.34446 8.5003C6.3485 7.95298 6.3748 7.68104 6.41638 7.51839C6.44532 7.40518 6.47765 7.35116 6.57252 7.25497L5.59326 6.26203ZM5.02637 14.9727C5.02637 18.6909 6.56429 21.2646 8.45971 22.8968C10.3258 24.5037 12.5477 25.2062 13.9826 25.2062V23.802C12.9034 23.802 10.9935 23.2364 9.35619 21.8265C7.74822 20.4419 6.41126 18.2499 6.41126 14.9727H5.02637Z" fill="white"/>
<path d="M11.6747 13.3802C11.4044 13.1058 10.966 13.1055 10.6954 13.3794C10.4248 13.6534 10.4244 14.0979 10.6946 14.3724L11.6747 13.3802ZM13.2226 15.9459L12.7325 16.442C12.8624 16.5739 13.0386 16.648 13.2224 16.6481C13.4062 16.6481 13.5824 16.5741 13.7123 16.4423L13.2226 15.9459ZM17.911 12.1828C18.1814 11.9086 18.1812 11.464 17.9108 11.1899C17.6403 10.9158 17.2018 10.9159 16.9315 11.1901L17.911 12.1828ZM10.6946 14.3724L12.7325 16.442L13.7126 15.4499L11.6747 13.3802L10.6946 14.3724ZM13.7123 16.4423L17.911 12.1828L16.9315 11.1901L12.7328 15.4496L13.7123 16.4423Z" fill="white"/>
</svg>
