<svg width="28" height="28" viewBox="0 0 28 28" fill="none" xmlns="http://www.w3.org/2000/svg">
<path d="M24.76 14.2876C25.126 14.2876 25.4227 13.9737 25.4227 13.5864C25.4227 13.1991 25.126 12.8851 24.76 12.8851V14.2876ZM12.3463 12.8851C11.9803 12.8851 11.6836 13.1991 11.6836 13.5864C11.6836 13.9737 11.9803 14.2876 12.3463 14.2876V12.8851ZM24.76 12.8851H12.3463V14.2876H24.76V12.8851Z" fill="#F75555"/>
<path d="M22.2105 10.4535C21.9512 10.1802 21.5315 10.1811 21.2732 10.4556C21.0149 10.73 21.0158 11.174 21.2752 11.4473L22.2105 10.4535ZM24.7614 14.1313L25.2291 14.6282C25.354 14.4966 25.4242 14.3178 25.4242 14.1313C25.4242 13.9448 25.354 13.766 25.2291 13.6344L24.7614 14.1313ZM21.2752 16.8153C21.0158 17.0886 21.0149 17.5326 21.2732 17.807C21.5315 18.0814 21.9512 18.0823 22.2105 17.8091L21.2752 16.8153ZM21.2752 11.4473L24.2938 14.6282L25.2291 13.6344L22.2105 10.4535L21.2752 11.4473ZM24.2938 13.6344L21.2752 16.8153L22.2105 17.8091L25.2291 14.6282L24.2938 13.6344Z" fill="#F75555"/>
<path d="M18.4952 9.16843C18.5288 9.5541 18.2606 9.89555 17.8961 9.9311C17.5316 9.96665 17.2089 9.68283 17.1753 9.29717L18.4952 9.16843ZM17.1753 18.7024C17.2089 18.3167 17.5316 18.0329 17.8961 18.0685C18.2606 18.104 18.5288 18.4455 18.4952 18.8311L17.1753 18.7024ZM17.1753 9.29717C17.0099 7.39852 16.6053 6.32865 15.7654 5.67013C14.8778 4.97421 13.3551 4.61076 10.6186 4.61076V3.20825C13.3771 3.20825 15.2926 3.55385 16.5545 4.54328C17.8642 5.57009 18.3204 7.16188 18.4952 9.16843L17.1753 9.29717ZM10.6186 4.61076C6.95763 4.61076 5.48738 5.26032 4.77771 6.48277C4.39968 7.13387 4.18327 8.03056 4.07219 9.29436C3.9612 10.5556 3.96058 12.0958 3.96058 13.9998H2.63508C2.63508 12.1186 2.63446 10.5048 2.75234 9.16443C2.86996 7.82658 3.11111 6.67385 3.6482 5.74869C4.7687 3.81862 6.95887 3.20825 10.6186 3.20825V4.61076ZM3.96058 13.9998C3.96058 15.9038 3.9612 17.4439 4.07219 18.7052C4.18327 19.969 4.39968 20.8656 4.77771 21.5168C5.48738 22.7392 6.95763 23.3888 10.6186 23.3888V24.7913C6.95887 24.7913 4.7687 24.1809 3.6482 22.2509C3.11111 21.3257 2.86996 20.173 2.75234 18.8351C2.63446 17.4948 2.63508 15.8809 2.63508 13.9998H3.96058ZM10.6186 23.3888C13.3551 23.3888 14.8778 23.0253 15.7654 22.3294C16.6053 21.6709 17.0099 20.601 17.1753 18.7024L18.4952 18.8311C18.3204 20.8377 17.8642 22.4294 16.5545 23.4563C15.2926 24.4457 13.3771 24.7913 10.6186 24.7913V23.3888Z" fill="#F75555"/>
</svg>
